<?xml version="1.0" standalone="no"?>
<!DOCTYPE svg PUBLIC "-//W3C//DTD SVG 1.1//EN" "http://www.w3.org/Graphics/SVG/1.1/DTD/svg11.dtd">
<svg xmlns="http://www.w3.org/2000/svg">
<defs >
<font id="Signika" horiz-adv-x="1241" ><font-face
    font-family="Signika Light Medium"
    units-per-em="2000"
    panose-1="0 0 0 0 0 0 0 0 0 0"
    ascent="1880"
    descent="-584"
    alphabetic="0" />
<glyph unicode=" " horiz-adv-x="440" />
<glyph unicode="!" horiz-adv-x="584" d="M199 395Q187 593 173 790T159 1186V1365Q191 1374 239 1377T336 1377T416 1364V1183Q416 986 401 789T374 395Q352 388 329 386T287 383Q269 383 245 385T199 395ZM287 231Q361 231 407 205Q415 190 420 159T425 105Q425
84 420 54T407 8Q385 -4 353 -11T287 -18Q254 -18 222 -11T167 8Q159 23 155 53T150 105Q150 128 154 159T167 205Q189 217 221 224T287 231Z" />
<glyph unicode="&quot;" horiz-adv-x="803" d="M470 1413Q470 1439 473 1463T483 1513Q504 1525 530 1533T590 1541Q620 1541 648 1533T697 1513Q702 1488 705 1464T709 1413Q709 1395 700 1330T677 1173T647 983Q628 971 591 971T533 983Q517 1081 503 1173T479
1330T470 1413ZM95 1413Q95 1439 98 1463T108 1513Q129 1525 155 1533T215 1541Q245 1541 273 1533T322 1513Q327 1488 330 1464T334 1413Q334 1395 325 1330T302 1173T272 983Q253 971 216 971T158 983Q142 1081 128 1173T104 1330T95 1413Z" />
<glyph unicode="#" horiz-adv-x="1319" d="M199 26Q216 18 243 14T300 9Q328 9 356 13T402 26L683 1282Q666 1291 640 1294T583 1298Q555 1298 528 1295T481 1282L199 26ZM650 26Q668 18 695 14T751 9Q781 9 808 13T854 26L1136 1282Q1118 1291 1092 1294T1035
1298Q1007 1298 980 1295T932 1282L650 26ZM1170 300Q1184 341 1184 393Q1184 447 1170 487H59Q44 450 44 393Q44 338 59 300H1170ZM1267 822Q1281 862 1281 916Q1281 969 1267 1008H156Q142 971 142 916Q142 860 156 822H1267Z" />
<glyph unicode="$" horiz-adv-x="1080" d="M520 52Q436 52 355 70T207 118T98 176Q99 207 111 242T143 307T186 351Q255 306 344 273T517 239Q596 239 646 272T698 369Q699 419 668 459T565 525L376 592Q268 631 201 703T133 887Q133 985 182 1060T317 1178T514
1221Q632 1221 728 1195T900 1129Q900 1082 878 1033T819 953Q749 991 676 1012T533 1033Q457 1033 412 1000T367 911Q367 857 403 830T498 780L677 715Q794 672 864 591T935 380Q935 284 884 210T739 94T520 52ZM508 -125Q453 -125 419 -117V119H595V-117Q563
-125 508 -125ZM439 1148V1389Q457 1393 480 1395T527 1398Q550 1398 574 1396T616 1389V1148H439Z" />
<glyph unicode="%" horiz-adv-x="1847" d="M1752 391Q1752 205 1679 90T1431 -25Q1314 -25 1244 28T1142 175T1111 391Q1111 514 1143 607T1245 752T1431 804Q1547 804 1617 752T1720 606T1752 391ZM1303 391Q1303 320 1312 259T1350 160T1433 122Q1487 122 1514
159T1551 258T1561 391Q1561 462 1552 522T1515 620T1433 657Q1379 657 1351 620T1313 523T1303 391ZM737 878Q737 692 664 577T416 462Q299 462 229 515T127 662T95 878Q95 1001 127 1094T230 1239T416 1291Q532 1291 602 1239T705 1094T737 878ZM288 878Q288
807 297 746T335 647T417 609Q471 609 498 646T536 745T546 878Q546 949 536 1010T499 1108T417 1145Q363 1145 335 1108T298 1010T288 878ZM1170 1281Q1199 1289 1243 1291T1330 1291T1392 1281L686 0Q657 -8 613 -10T526 -10T464 0L1170 1281Z" />
<glyph unicode="&amp;" horiz-adv-x="1258" d="M1005 820Q1060 820 1112 828T1199 853Q1215 834 1222 804T1230 744Q1230 679 1187 652T1072 625H612Q516 625 455 590T366 497T338 375Q338 269 393 213T538 156Q617 156 683 184T789 246V500Q789 545 791 610T797
730H1008Q1012 675 1014 610T1016 501V307Q1016 237 1019 153T1028 0Q1008 -6 981 -9T922 -13Q892 -13 864 -10T816 -2L799 81Q736 32 653 3T481 -27Q355 -27 270 24T140 163T96 359Q96 472 147 558T278 694T443 745V715Q364 718 298 761T193 875T154 1035Q154
1136 204 1217T349 1345T576 1393Q681 1393 782 1376T954 1333Q955 1288 939 1238T894 1155Q827 1176 755 1192T602 1208Q503 1208 450 1154T396 1018Q396 927 453 874T633 820H1005Z" />
<glyph unicode="&apos;" horiz-adv-x="434" d="M89 1413Q89 1439 92 1463T102 1513Q123 1525 149 1533T209 1541Q239 1541 267 1533T316 1513Q321 1488 324 1464T328 1413Q328 1395 319 1330T296 1173T266 983Q247 971 210 971T152 983Q136 1081 122 1173T98 1330T89
1413Z" />
<glyph unicode="(" horiz-adv-x="681" d="M366 549Q366 396 396 239T488 -67T648 -345Q626 -393 590 -423T513 -467Q386 -343 299 -173T168 185T123 549Q123 725 167 912T299 1270T513 1564Q553 1550 589 1520T648 1441Q551 1313 489 1165T396 859T366 549Z" />
<glyph unicode=")" horiz-adv-x="681" d="M314 549Q314 396 285 239T193 -67T33 -345Q55 -393 91 -423T168 -467Q295 -343 381 -173T512 185T557 549Q557 725 513 912T382 1270T168 1564Q128 1550 92 1520T33 1441Q130 1313 192 1165T284 859T314 549Z" />
<glyph unicode="*" horiz-adv-x="1015" d="M410 1461Q433 1471 470 1474T544 1474T605 1461L602 1346Q601 1278 582 1206T548 1072Q529 1050 507 1050Q484 1050 467 1072Q450 1134 432 1206T413 1346L410 1461ZM86 1084Q84 1109 92 1145T115 1215T147 1269L254
1231Q319 1209 381 1169T499 1095Q515 1069 507 1050Q504 1039 496 1031T473 1019Q409 1022 335 1026T196 1052L86 1084ZM344 660Q319 666 288 684T229 727T187 774L255 865Q297 920 354 967T461 1055Q489 1062 507 1050Q527 1035 527 1008Q504 948 477 880T408
754L344 660ZM826 773Q814 752 787 728T728 685T670 659L606 754Q566 810 539 879T488 1007Q489 1037 507 1050Q516 1056 528 1058T553 1055Q603 1015 659 967T758 864L826 773ZM868 1267Q885 1250 899 1217T922 1147T929 1084L819 1050Q754 1031 680 1027T543
1019Q516 1027 507 1050Q500 1070 515 1094Q570 1130 633 1169T760 1230L868 1267Z" />
<glyph unicode="+" horiz-adv-x="1080" d="M121 725Q112 681 112 629Q112 575 121 534H335Q363 534 392 535T448 536H632Q659 536 688 535T745 534H959Q968 577 968 629Q968 678 959 725H745Q717 725 688 724T632 723H448Q421 723 392 724T335 725H121ZM438 830Q438
802 439 773T440 716V544Q440 517 439 488T438 431V199Q463 194 488 193T542 191Q568 191 593 192T642 199V431Q642 459 641 488T640 544V716Q640 743 641 772T642 830V1061Q618 1066 592 1067T540 1069Q512 1069 488 1068T438 1061V830Z" />
<glyph unicode="," horiz-adv-x="548" d="M405 217Q416 188 422 153T428 80Q428 -6 394 -87T291 -232T120 -330Q90 -315 75 -283T62 -218Q132 -189 179 -136T232 -17Q211 -13 188 -6T150 11Q142 26 137 56T131 111Q131 138 136 170T150 217Q170 229 208 237T279
246Q311 246 348 238T405 217Z" />
<glyph unicode="-" horiz-adv-x="710" d="M100 438Q95 462 93 488T91 534Q91 555 93 581T100 631H610Q616 608 618 582T620 534Q620 514 618 488T610 438H100Z" />
<glyph unicode="." horiz-adv-x="535" d="M119 114Q119 132 124 165T139 218Q161 231 197 239T268 247Q300 247 338 239T397 218Q407 198 412 165T417 114Q417 96 412 64T397 11Q377 -2 339 -9T268 -17Q234 -17 198 -10T139 11Q129 31 124 63T119 114Z" />
<glyph unicode="/" horiz-adv-x="856" d="M643 1425Q692 1421 745 1402T839 1351L208 -325Q159 -321 107 -303T12 -251L643 1425Z" />
<glyph unicode="0" horiz-adv-x="1080" d="M95 633Q95 812 122 946T241 1177Q294 1230 364 1261T541 1293Q649 1293 717 1262T839 1177Q930 1080 957 946T985 633Q985 454 958 321T839 89Q786 37 717 5T540 -27Q433 -27 364 5T241 89Q150 187 123 320T95 633ZM333
633Q333 472 348 373T402 222Q424 186 459 169T540 151Q586 151 621 168T678 222Q715 274 731 373T747 633Q747 795 731 894T678 1044Q656 1080 621 1097T540 1115Q495 1115 460 1098T402 1044Q365 993 349 894T333 633Z" />
<glyph unicode="1" horiz-adv-x="1080" d="M709 325Q709 285 708 248T707 168V91H488V168Q488 210 487 247T486 325V712Q486 747 489 808T495 931T498 1033L493 1266Q522 1272 549 1274T601 1276Q626 1276 652 1274T709 1266V325ZM370 189Q392 189 431 188T492
187H703Q725 187 766 188T828 189H960Q970 143 970 95Q970 49 960 0H192Q180 47 180 95Q180 145 192 189H370ZM116 878Q262 969 356 1069T493 1266L576 1086Q549 1011 491 945T358 827T212 743Q177 762 151 798T116 878Z" />
<glyph unicode="2" horiz-adv-x="1080" d="M126 992Q154 1073 210 1141T349 1251T536 1293Q718 1293 825 1189T932 916Q932 822 898 752T807 624T685 511L534 388Q481 344 437 301T367 222T339 160L334 -1H198Q165 35 138 71T111 152Q111 209 145 269T236 391T357
507L557 677Q622 732 660 788T698 919Q698 1003 648 1054T515 1105Q434 1105 376 1050T289 917Q247 919 198 938T126 992ZM964 197Q964 82 931 41T815 -1H213L149 144Q212 164 299 175T472 192T616 197H964Z" />
<glyph unicode="3" horiz-adv-x="1080" d="M730 404Q730 505 671 559T514 614Q482 614 447 606T384 583Q353 600 328 635T294 706Q350 731 419 748T577 765Q683 765 771 725T913 602T966 395Q966 290 928 211T824 79T676 0T507 -27Q377 -27 273 11T102 107Q111
148 138 190T201 260Q258 216 327 188T477 159Q586 159 658 221T730 404ZM672 824Q637 788 591 756T501 699T423 659L294 706L531 951Q547 967 572 992T624 1042T667 1081L660 1090Q625 1082 561 1077T436 1071H161Q152 1095 150 1117T147 1155Q147 1179 151 1208T167
1266H869Q895 1217 906 1183T918 1124Q918 1074 871 1024L672 824Z" />
<glyph unicode="4" horiz-adv-x="1080" d="M131 265Q109 299 95 336T80 405Q80 429 92 462T120 530L458 1279Q491 1286 532 1283T611 1267T669 1235L456 770Q438 726 411 667T354 551T299 455L304 447Q343 450 390 452T479 455T540 456H810Q837 456 858 457T907
458H1003Q1007 436 1007 415T1008 373Q1008 351 1005 322T994 267H907Q879 267 858 267T810 268H593Q566 268 536 267T478 265H131ZM591 153Q591 181 592 211T593 268V431Q593 443 592 472T591 516V655Q591 737 631 784T743 831H802L812 821V570Q812 542 811 513T810
456V268Q810 241 811 211T812 153V0Q785 -5 757 -7T701 -9Q674 -9 646 -7T591 0V153Z" />
<glyph unicode="5" horiz-adv-x="1080" d="M393 860Q391 820 384 778T364 698Q320 682 269 673T161 659L192 1252L393 1219Q397 1191 399 1145T402 1053T401 982L393 860ZM114 103Q121 137 148 183T210 254Q271 212 335 186T479 160Q544 160 600 188T690 274T724
424Q724 514 689 566T600 641T488 664Q432 664 377 643T273 581Q242 587 210 610T161 659Q201 702 259 744T391 815T550 843Q738 843 849 733T960 435Q960 277 893 175T719 23T495 -27Q377 -27 279 9T114 103ZM892 1266Q902 1240 905 1215T909 1172Q909 1073 808
1073H467Q416 1073 363 1074T266 1079T199 1084L192 1252L206 1266H892Z" />
<glyph unicode="6" horiz-adv-x="1080" d="M553 -27Q462 -27 400 -3T299 52T242 106Q228 122 205 154T159 245T120 397T103 631Q103 834 163 982T339 1212T625 1293Q713 1293 790 1276T921 1228Q918 1184 897 1139T842 1068Q803 1085 753 1098T640 1111Q532 1111
466 1058T371 913T341 705V526Q341 472 349 414T373 304T418 216Q441 187 475 168T556 148Q655 148 705 220T755 407Q755 501 730 556T662 634T563 658Q512 658 460 637T361 576T281 482L237 604Q267 668 323 723T456 812T622 847Q784 847 884 744T985 422Q985
286 929 185T775 29T553 -27Z" />
<glyph unicode="7" horiz-adv-x="1080" d="M942 1266Q957 1234 970 1194T983 1124Q983 1104 974 1080T945 1027Q847 896 778 782T661 556T587 329T547 76L540 0Q517 -5 487 -7T423 -10Q393 -10 362 -8T306 0L314 85Q331 266 391 447T547 792T767 1081L760 1090Q738
1085 697 1082T609 1076T521 1072T460 1071H135Q123 1106 123 1150Q123 1180 129 1210T144 1266H942Z" />
<glyph unicode="8" horiz-adv-x="1080" d="M91 319Q91 413 137 489T257 618T411 696L577 631Q448 588 386 507T323 335Q323 241 384 189T538 136Q600 136 648 161T725 231T753 336Q753 398 722 443T638 521T521 573L483 586Q378 622 298 671T172 789T126 955Q126
1053 180 1129T327 1249T539 1293Q663 1293 755 1251T900 1135T952 964Q952 883 912 819T807 711T670 645L511 711Q614 743 671 808T728 954Q728 1033 674 1079T538 1126Q460 1126 406 1080T352 957Q352 881 411 834T570 758L608 746Q714 712 800 658T937 524T988
334Q988 221 926 141T759 17T529 -27Q333 -27 212 64T91 319Z" />
<glyph unicode="9" horiz-adv-x="1080" d="M527 1293Q619 1293 681 1270T782 1215T838 1160Q852 1144 875 1112T921 1021T960 869T977 635Q977 432 917 284T741 54T455 -27Q367 -27 290 -10T159 38Q162 82 183 127T238 198Q277 182 327 169T440 156Q548 156 614
209T709 354T739 561V740Q739 794 732 852T708 963T662 1050Q639 1079 605 1098T524 1118Q425 1118 375 1047T325 859Q325 766 350 711T418 632T517 608Q569 608 621 629T719 690T799 784L843 662Q813 599 757 544T624 454T459 420Q296 420 196 522T95 844Q95 980
151 1081T305 1237T527 1293Z" />
<glyph unicode=":" horiz-adv-x="548" d="M125 114Q125 132 130 165T145 218Q167 231 203 239T274 247Q306 247 344 239T403 218Q413 198 418 165T423 114Q423 96 418 64T403 11Q383 -2 345 -9T274 -17Q240 -17 204 -10T145 11Q135 31 130 63T125 114ZM125 764Q125
782 130 815T145 868Q167 881 203 889T274 897Q306 897 344 889T403 868Q413 848 418 815T423 764Q423 746 418 714T403 661Q383 648 345 641T274 633Q240 633 204 640T145 661Q135 681 130 713T125 764Z" />
<glyph unicode=";" horiz-adv-x="556" d="M659 217Q670 188 676 153T682 80Q682 -6 648 -87T545 -232T374 -330Q344 -315 329 -283T316 -218Q386 -189 433 -136T486 -17Q465 -13 442 -6T404 11Q396 26 391 56T385 111Q385 138 390 170T404 217Q424 229 462 237T533
246Q565 246 602 238T659 217ZM129 764Q129 782 134 815T149 868Q171 881 207 889T278 897Q310 897 348 889T407 868Q417 848 422 815T427 764Q427 746 422 714T407 661Q387 648 349 641T278 633Q244 633 208 640T149 661Q139 681 134 713T129 764Z" />
<glyph unicode="&lt;" horiz-adv-x="1080" d="M850 1119Q891 1095 921 1047T954 941L501 705Q472 690 424 668T349 635V621Q375 611 423 590T501 553L954 315Q949 260 919 210T849 136L117 538Q106 578 105 627T117 717L850 1119Z" />
<glyph unicode="=" horiz-adv-x="1080" d="M121 337Q116 359 114 385T112 432Q112 453 114 479T121 529H959Q964 505 966 479T968 432Q968 412 966 386T959 337H121ZM121 735Q116 758 114 784T112 830Q112 851 114 877T121 927H959Q964 904 966 878T968 830Q968
810 966 784T959 735H121Z" />
<glyph unicode="&gt;" horiz-adv-x="1069" d="M225 139Q184 163 154 211T120 316L574 554Q603 569 651 591T726 623V636Q700 647 652 669T574 705L120 942Q126 999 156 1048T226 1122L959 719Q969 680 970 631T959 540L225 139Z" />
<glyph unicode="?" horiz-adv-x="801" d="M18 1288Q99 1334 198 1363T405 1393Q583 1393 684 1298T785 1047Q785 906 710 812T524 658L400 589L383 396Q363 389 342 386T299 383Q278 383 254 386T209 396L197 694L215 718L315 767Q417 818 480 879T544 1023Q544
1100 495 1146T355 1193Q289 1193 225 1172T101 1120Q71 1145 46 1194T18 1288ZM299 228Q331 228 364 221T419 201Q427 187 432 156T437 103Q437 81 432 51T419 5Q397 -8 364 -15T299 -22Q225 -22 178 5Q170 20 165 50T160 103Q160 125 165 156T178 201Q225 228
299 228Z" />
<glyph unicode="@" horiz-adv-x="1910" d="M1338 317Q1338 246 1357 216T1420 186Q1467 186 1509 224T1579 350T1606 589Q1606 772 1530 906T1314 1115T988 1189Q837 1189 715 1134T505 979T370 744T323 449Q323 233 397 87T604 -133T914 -207Q1022 -207 1123
-188T1316 -133Q1344 -161 1360 -206T1376 -291Q1308 -319 1228 -339T1064 -371T899 -383Q666 -383 485 -291T200 -13T96 449Q96 645 161 811T346 1100T629 1291T988 1359Q1172 1359 1326 1305T1593 1150T1768 906T1830 582Q1830 392 1770 266T1614 78T1414 15Q1326
15 1261 51T1160 150T1124 292V746Q1099 770 1063 785T982 801Q915 801 872 755T809 632T789 461Q789 332 823 258T939 183Q983 183 1028 209T1111 278T1167 365L1249 256Q1225 198 1170 141T1042 45T889 7Q788 7 716 62T607 218T569 453Q569 597 616 713T756 897T982
965Q1090 965 1184 924T1338 824V317Z" />
<glyph unicode="A" horiz-adv-x="1234" d="M485 1366Q513 1370 552 1372T621 1375Q648 1375 688 1373T753 1365L1198 15Q1173 0 1136 -7T1063 -15Q1007 -15 976 10T923 110L718 768Q691 855 663 956T611 1140H600Q590 1093 576 1037T546 927T519 833L257 -2Q235
-7 210 -9T156 -11Q127 -11 96 -7T43 5L35 17L485 1366ZM468 321Q458 321 432 321T379 322T341 323H228L300 511H400Q410 511 433 511T481 512T515 513H704Q715 513 738 513T787 512T822 511H924L986 323H873Q863 323 836 323T782 322T745 321H468Z" />
<glyph unicode="B" horiz-adv-x="1214" d="M189 1368Q300 1370 406 1372T613 1375Q759 1375 857 1333T1006 1210T1056 1013Q1056 938 1023 873T931 766T798 716V746Q880 744 954 695T1075 565T1121 385Q1121 268 1069 180T911 41T640 -9Q520 -9 412 -7T189 -2L175
11V1355L189 1368ZM407 164Q467 164 525 165T635 166Q738 166 791 203T864 293T883 396Q883 445 861 499T783 591T624 629H316V806H604Q693 806 740 836T805 912T823 1004Q823 1051 806 1096T743 1170T607 1200Q568 1200 511 1200T407 1202V164Z" />
<glyph unicode="C" horiz-adv-x="1209" d="M910 880Q911 957 888 1031T806 1155T643 1204Q491 1204 416 1069T340 676Q340 435 424 306T660 177Q755 177 842 217T1013 327Q1050 303 1084 260T1128 176Q1072 120 993 74T819 1T619 -27Q473 -27 373 32T211 193T122
419T94 677Q94 927 170 1085T372 1318T649 1393Q799 1393 908 1338T1077 1193T1137 998Q1137 936 1105 901T1004 866Q978 866 957 869T910 880Z" />
<glyph unicode="D" horiz-adv-x="1304" d="M1208 683Q1208 566 1192 459T1131 258T993 91Q949 55 887 33T760 1T641 -10Q559 -10 489 -9T348 -6T189 -2L175 11V1355L189 1368Q275 1371 346 1372T488 1374T641 1375Q695 1375 760 1365T887 1332T993 1273Q1084 1199
1130 1106T1192 906T1208 683ZM965 683Q965 770 954 859T909 1022T811 1142T640 1188Q580 1188 527 1188T409 1190V178Q474 178 527 178T640 177Q746 177 810 222T908 343T953 507T965 683Z" />
<glyph unicode="E" horiz-adv-x="1135" d="M174 1353L187 1366H403V1174Q403 1132 404 1104T405 1035V301Q405 272 404 248T403 192V-3H309Q246 -3 210 35T174 140V1353ZM893 786Q900 764 902 736T905 689Q905 669 903 643T893 592H532Q508 592 471 592T394 594T324
595V783Q354 783 394 784T471 785T532 786H893ZM1004 1366Q1009 1340 1010 1317T1011 1273Q1011 1253 1007 1224T993 1168H532Q508 1168 471 1168T394 1169T324 1171V1366H1004ZM1045 195Q1045 91 1013 44T890 -3H324V186Q375 189 424 192T538 195H1045Z" />
<glyph unicode="F" horiz-adv-x="1048" d="M410 0Q382 -5 352 -7T294 -9Q267 -9 235 -7T175 0V1354L189 1366H408V1263Q408 1184 409 1104T410 948V0ZM993 1366Q1000 1346 1002 1321T1005 1274Q1005 1217 973 1192T875 1166H590Q509 1166 442 1167T316 1171V1366H993ZM884
783Q890 761 892 733T895 686Q895 666 893 639T884 589H485Q447 589 402 590T321 592V780Q357 781 402 782T485 783H884Z" />
<glyph unicode="G" horiz-adv-x="1291" d="M1166 1247Q1159 1194 1125 1146T1055 1074Q983 1127 891 1160T705 1194Q599 1194 516 1143T384 977T335 671Q335 412 431 288T719 164Q823 164 911 186T1048 228L1168 58Q1109 36 1029 17T859 -15T677 -27Q518 -27 407
27T226 178T126 402T94 673Q94 862 144 998T281 1222T476 1351T699 1393Q825 1393 949 1353T1166 1247ZM946 401Q946 471 950 534T967 648L1168 580V58L946 54V401ZM1005 730Q1096 730 1132 690T1168 580V531H793Q746 531 713 550T679 631Q679 655 684 682T696
730H1005Z" />
<glyph unicode="H" horiz-adv-x="1354" d="M519 605Q509 605 487 605T442 606T408 607Q374 607 339 606T268 605V805Q303 805 338 804T408 803Q419 803 441 803T486 804T519 805H835Q845 805 867 805T913 804T946 803Q981 803 1016 804T1085 805V605Q1051 605
1016 606T946 607Q936 607 913 607T868 606T835 605H519ZM410 0Q382 -5 350 -7T291 -9Q267 -9 234 -7T175 0V1366Q201 1371 234 1373T291 1375Q318 1375 350 1373T410 1366V951Q410 909 409 877T408 803V607Q408 567 409 534T410 459V0ZM944 459Q944 501 945 534T946
607V803Q946 844 945 876T944 951V1366Q971 1371 1002 1373T1060 1375Q1085 1375 1118 1373T1178 1366V0Q1151 -5 1120 -7T1062 -9Q1035 -9 1004 -7T944 0V459Z" />
<glyph unicode="I" horiz-adv-x="596" d="M181 1366Q207 1371 240 1373T297 1375Q324 1375 355 1373T415 1366V0Q387 -5 356 -7T297 -9Q273 -9 240 -7T181 0V1366Z" />
<glyph unicode="J" horiz-adv-x="906" d="M106 239Q150 213 205 195T313 176Q433 176 476 248T520 472V1366Q547 1371 580 1373T638 1375Q664 1375 695 1373T754 1366V502Q754 391 738 296T677 130T549 20T334 -20Q257 -20 172 2T20 65Q28 112 50 158T106 239Z" />
<glyph unicode="K" horiz-adv-x="1202" d="M175 1366Q201 1371 234 1373T291 1375Q318 1375 350 1373T410 1366V0Q382 -5 350 -7T291 -9Q267 -9 234 -7T175 0V1366ZM1173 60Q1150 25 1105 6T1016 -13Q948 -13 919 21T865 126L763 407Q724 518 673 562T536 606Q502
606 440 604T289 595V746H643Q748 746 810 716T911 630T977 494L1081 214Q1098 169 1111 141T1140 95T1173 60ZM832 1282Q857 1328 883 1350T967 1373Q997 1373 1032 1372T1102 1367L1117 1348L826 846Q779 762 708 714T527 666H289V800Q341 802 400 803T509 805Q541
805 555 818T589 863L832 1282Z" />
<glyph unicode="L" horiz-adv-x="1028" d="M409 -3H311Q250 -3 212 34T174 141V1363L187 1375H276Q346 1375 377 1340T409 1227V-3ZM976 201Q976 84 940 41T818 -3H311L188 168Q288 185 394 193T589 201H976Z" />
<glyph unicode="M" horiz-adv-x="1626" d="M246 1365Q285 1372 330 1373T404 1375Q434 1375 474 1374T553 1365L729 766Q735 744 746 700T770 605T793 509T806 439H818Q822 463 832 508T855 605T879 700T897 766L1073 1365Q1113 1372 1152 1373T1221 1375Q1250
1375 1294 1374T1379 1365L1485 3Q1460 -3 1428 -6T1366 -10Q1339 -10 1314 -8T1262 -2L1219 695Q1215 753 1212 827T1207 976T1203 1112H1191L931 207Q905 203 872 201T811 199Q787 199 754 201T693 207L434 1112H423Q421 1052 419 977T413 827T407 695L362 -2Q337
-6 311 -8T257 -10Q229 -10 197 -7T140 3L246 1365Z" />
<glyph unicode="N" horiz-adv-x="1367" d="M175 1363Q204 1369 246 1372T314 1375Q341 1375 379 1373T453 1366L392 1095L375 1091Q380 1019 384 929T390 748T393 580V0Q364 -5 337 -7T286 -9Q264 -9 234 -7T175 0V1363ZM506 815Q470 889 439 960T382 1094L272
1224L453 1366L853 552Q892 472 925 397T985 260L1102 137L911 0L506 815ZM1190 1364V3Q1162 -3 1121 -6T1049 -9Q1020 -9 984 -7T911 0L974 259L992 262Q987 345 983 439T976 624T974 783V1231Q974 1309 1002 1342T1101 1375H1178L1190 1364Z" />
<glyph unicode="O" horiz-adv-x="1319" d="M339 684Q339 596 351 504T398 333T495 206T660 158Q761 158 824 206T920 332T966 503T979 684Q979 772 967 864T921 1034T824 1160T660 1208Q558 1208 495 1160T398 1034T352 864T339 684ZM94 684Q94 888 155 1048T342
1300T660 1393Q853 1393 978 1301T1165 1048T1226 684Q1226 479 1165 319T978 66T660 -27Q467 -27 342 66T155 320T94 684Z" />
<glyph unicode="P" horiz-adv-x="1144" d="M1075 924Q1075 775 1016 675T851 523T610 472H311V650Q343 652 401 653T516 655T599 656Q695 656 745 699T814 804T833 924Q833 982 815 1043T746 1147T599 1190Q560 1190 509 1190T410 1192V0Q382 -5 350 -7T291 -9Q267
-9 234 -7T175 0V1355L189 1368Q304 1370 405 1372T610 1375Q745 1375 850 1326T1015 1176T1075 924Z" />
<glyph unicode="Q" horiz-adv-x="1310" d="M335 684Q335 595 348 503T394 334T490 209T655 161Q756 161 819 208T915 333T960 503T972 684Q972 774 960 866T915 1035T819 1160T655 1208Q554 1208 491 1161T394 1036T348 866T335 684ZM94 684Q94 889 153 1048T336
1300T655 1393Q851 1393 975 1300T1158 1047T1217 683Q1217 562 1193 446T1118 235T990 84T804 25Q773 5 742 -11T661 -27Q461 -27 336 65T153 318T94 684ZM584 47L815 123L967 15Q1028 -28 1071 -51T1148 -83T1219 -93Q1217 -176 1170 -219T1064 -262Q1012 -262
973 -246T899 -203L584 47Z" />
<glyph unicode="R" horiz-adv-x="1207" d="M1089 960Q1089 867 1055 793T963 669T836 595Q887 578 922 531T980 423L1063 202Q1084 145 1105 112T1154 56Q1131 24 1086 5T996 -15Q931 -15 901 21T845 127L751 385Q728 450 687 495T555 540H312V720Q355 722 412
724T525 727T615 728Q708 728 758 762T828 850T848 960Q848 1019 829 1072T759 1158T615 1192Q575 1192 517 1192T408 1194V0Q380 -5 349 -7T290 -9Q267 -9 234 -7T175 0V1355L189 1368Q304 1370 414 1372T629 1375Q768 1375 871 1328T1032 1189T1089 960Z" />
<glyph unicode="S" horiz-adv-x="1112" d="M54 123Q59 174 87 223T151 301Q237 245 343 206T554 167Q668 167 729 217T790 344Q790 407 748 458T619 547L378 648Q252 701 177 785T101 1000Q101 1112 159 1200T322 1341T560 1393Q689 1393 801 1360T992 1287Q990
1237 968 1188T909 1107Q831 1145 736 1173T563 1201Q457 1201 399 1150T340 1027Q340 967 382 928T496 857L737 758Q824 721 892 667T998 541T1037 380Q1037 264 982 172T817 26T539 -27Q416 -27 287 13T54 123Z" />
<glyph unicode="T" horiz-adv-x="991" d="M31 1169Q26 1195 25 1220T23 1267Q23 1289 24 1314T31 1366H965Q971 1347 974 1322T977 1274Q977 1217 946 1193T849 1169H732Q712 1169 674 1170T615 1171H380Q360 1171 322 1170T263 1169H31ZM380 1023Q380 1064 380
1096T381 1171V1268H614V1171Q614 1129 614 1097T615 1023V0Q587 -5 556 -7T498 -9Q472 -9 441 -7T380 0V1023Z" />
<glyph unicode="U" horiz-adv-x="1340" d="M1182 484Q1182 318 1119 204T942 32T669 -27Q512 -27 398 31T220 204T157 484V1363L170 1375H259Q329 1375 360 1340T392 1227V484Q392 325 461 244T669 162Q810 162 879 243T948 484V1366Q975 1371 1006 1373T1062
1375Q1087 1375 1121 1373T1182 1366V484Z" />
<glyph unicode="V" horiz-adv-x="1162" d="M913 1366Q937 1371 963 1373T1014 1375Q1039 1375 1069 1371T1122 1361L1131 1345L739 -1Q697 -5 650 -7T557 -10Q490 -10 453 13T397 101L36 1345Q69 1360 105 1370T179 1381Q228 1381 258 1355T306 1266L503 575Q517
524 532 464T561 342T588 226Q593 206 606 206L913 1366Z" />
<glyph unicode="W" horiz-adv-x="1722" d="M54 1353Q85 1367 117 1374T182 1381Q241 1381 269 1354T309 1254L426 607Q435 553 447 480T470 337T488 218Q491 201 494 198T506 194L714 1338Q748 1344 790 1346T865 1349Q900 1349 942 1347T1015 1338L1206 218Q1209
201 1213 198T1226 194Q1234 254 1246 329T1271 479T1294 610L1440 1366Q1465 1371 1492 1373T1545 1375Q1573 1375 1603 1372T1657 1361L1669 1345L1387 2Q1345 -4 1285 -7T1180 -10Q1127 -10 1088 9T1036 102L945 617Q928 720 907 852T869 1105H855Q836 984 814
853T772 617L655 1Q613 -4 558 -7T457 -10Q401 -10 359 9T302 103L54 1353Z" />
<glyph unicode="X" horiz-adv-x="1186" d="M77 1330Q113 1355 154 1368T231 1381Q277 1381 311 1361T379 1289L1154 37Q1118 11 1077 -2T1000 -15Q954 -15 919 5T851 78L77 1330ZM886 1366Q902 1370 928 1373T983 1376Q1018 1376 1051 1370T1105 1356L1112 1341L696
664L600 560L263 0Q246 -4 219 -7T163 -10Q128 -10 95 -4T39 11L32 26L495 772L591 877L886 1366Z" />
<glyph unicode="Y" horiz-adv-x="1022" d="M395 576H629V0Q601 -5 570 -7T512 -9Q488 -9 455 -7T395 0V576ZM789 1366Q813 1372 838 1374T887 1376Q917 1376 947 1372T1001 1360L1011 1344L612 393H415L13 1339Q49 1359 86 1370T159 1381Q208 1381 235 1357T284
1282L430 926Q452 871 474 803T515 669H526Q538 711 554 760T587 854T616 932L789 1366Z" />
<glyph unicode="Z" horiz-adv-x="1131" d="M615 971Q645 1017 688 1072T772 1180L766 1186Q740 1182 698 1179T609 1175T521 1172T455 1171H141Q135 1191 133 1210T131 1250Q131 1280 135 1308T149 1366H985Q1000 1313 1007 1285T1016 1242T1018 1217Q1018 1196
1012 1174T989 1126L498 403Q466 356 423 299T341 193L347 187Q411 193 480 196T600 199H788Q867 199 925 210T1023 239Q1030 215 1035 186T1040 129Q1040 65 999 33T880 0H120Q107 51 101 79T93 121T91 146Q91 169 98 194T121 243L615 971Z" />
<glyph unicode="[" horiz-adv-x="707" d="M198 1522L424 1442V-328L198 -390V1522ZM213 -405L198 -390L217 -216L627 -227Q633 -242 639 -269T645 -323Q645 -337 643 -356T637 -388L213 -405ZM637 1520Q641 1506 643 1487T645 1454Q645 1428 639 1401T627 1358L217
1347L198 1522L213 1535L637 1520Z" />
<glyph unicode="\" horiz-adv-x="856" d="M648 -325Q697 -320 750 -302T844 -251L214 1425Q164 1421 112 1403T17 1351L648 -325Z" />
<glyph unicode="]" horiz-adv-x="707" d="M509 1522L284 1442V-328L509 -390V1522ZM495 -405L509 -390L491 -216L81 -227Q75 -242 69 -269T63 -323Q63 -337 64 -356T71 -388L495 -405ZM71 1520Q66 1506 65 1487T63 1454Q63 1428 69 1401T81 1358L491 1347L509
1522L495 1535L71 1520Z" />
<glyph unicode="^" horiz-adv-x="1060" d="M979 612Q958 607 928 604T865 601Q835 601 806 604T757 612L606 941Q596 965 583 998T558 1063T537 1119H523Q514 1096 502 1064T478 998T454 941L304 612Q283 607 254 604T195 601Q162 601 132 604T81 612L408 1296Q429
1301 462 1304T532 1307Q567 1307 599 1305T652 1296L979 612Z" />
<glyph unicode="_" horiz-adv-x="1073" d="M-1 -319Q-6 -298 -8 -274T-10 -232Q-10 -213 -8 -189T-1 -142H1074Q1080 -164 1082 -184T1084 -232Q1084 -279 1074 -319H-1Z" />
<glyph unicode="`" horiz-adv-x="796" d="M329 1490Q282 1475 237 1434T176 1345L523 1077Q553 1086 580 1111T621 1168L329 1490Z" />
<glyph unicode="a" horiz-adv-x="1016" d="M82 269Q82 385 133 459T272 568T467 604Q521 604 591 600T721 582V431Q670 443 604 446T484 450Q398 450 352 406T306 285Q306 228 339 189T433 150Q503 150 580 199T711 342L745 177Q709 134 657 87T535 6T378 -27Q278
-27 212 17T114 130T82 269ZM930 102Q923 71 900 37T850 -15Q782 -5 739 30T675 114T649 216V663Q649 751 609 790T492 830Q420 830 341 808T181 756Q155 783 138 830T119 921Q177 945 250 966T399 999T543 1011Q639 1011 713 976T831 866T874 675V265Q874 212
885 171T930 102Z" />
<glyph unicode="b" horiz-adv-x="1058" d="M372 50H149V1458L162 1471H247Q317 1471 344 1438T372 1328V50ZM977 508Q977 335 916 219T751 43T518 -16Q420 -16 326 1T149 50L260 223Q320 187 383 169T521 151Q588 151 638 191T717 310T745 505Q745 671 697 745T573
819Q505 820 438 776T330 657L297 839Q330 878 378 917T489 981T629 1007Q745 1007 822 943T938 766T977 508Z" />
<glyph unicode="c" horiz-adv-x="944" d="M666 596Q669 664 656 720T607 809T502 843Q412 843 365 756T317 490Q317 314 373 236T532 157Q599 157 659 187T771 255Q801 237 829 198T865 122Q797 55 702 14T497 -27Q390 -27 312 13T183 124T108 289T83 490Q83 630
118 730T215 893T351 986T507 1016Q597 1016 665 990T781 919T851 820T875 709Q875 651 847 619T760 587Q732 587 711 589T666 596Z" />
<glyph unicode="d" horiz-adv-x="1063" d="M911 283Q911 227 923 178T967 102Q959 71 936 37T886 -15Q781 1 735 77T689 256V1458L702 1471H789Q859 1471 885 1438T911 1328V283ZM84 483Q84 660 139 776T283 950T470 1007Q567 1007 647 967T797 879L769 703Q711
749 643 789T504 829Q450 829 408 791T341 675T316 481Q316 368 339 297T400 194T484 161Q531 161 584 186T682 269T753 418L801 260Q784 190 732 124T603 16T430 -27Q315 -27 238 38T123 218T84 483Z" />
<glyph unicode="e" horiz-adv-x="999" d="M226 422V585H690V611Q690 676 672 730T613 817T505 850Q409 850 363 769T316 543V473Q316 385 333 313T399 198T536 156Q611 156 680 176T811 229Q839 202 857 162T880 86Q807 34 707 4T501 -27Q380 -27 299 15T171 131T103
298T83 492Q83 641 129 760T269 947T506 1016Q636 1016 725 960T861 807T907 591Q907 539 903 503T889 422H226Z" />
<glyph unicode="f" horiz-adv-x="681" d="M306 987L681 991Q686 971 688 951T690 909Q690 888 688 867T681 825L304 830L25 825Q20 845 18 866T15 909Q15 930 17 950T25 991L306 987ZM197 892Q191 962 182 1029T173 1160Q173 1251 211 1323T320 1437T491 1479Q564
1479 636 1464T756 1430Q757 1391 743 1347T705 1278Q668 1289 623 1298T536 1307Q467 1307 429 1266T390 1146Q390 1087 400 1021T419 889V0Q367 -9 306 -9Q248 -9 197 0V892Z" />
<glyph unicode="g" horiz-adv-x="1059" d="M969 887Q938 861 926 812T913 707V127Q913 7 902 -75T870 -211T816 -306Q767 -369 679 -405T477 -441Q385 -441 291 -422T125 -374Q125 -332 141 -283T184 -205Q247 -234 321 -250T455 -267Q551 -267 602 -232T673 -137T692
-3V734Q692 835 737 912T888 1004Q914 988 938 953T969 887ZM84 493Q84 670 140 785T284 958T470 1016Q559 1016 624 989T735 920T813 837L780 645Q727 732 652 785T507 838Q421 838 369 752T316 491Q316 321 364 246T482 170Q559 170 629 220T740 351L774 181Q746
133 696 88T578 12T434 -18Q317 -18 239 46T123 226T84 493Z" />
<glyph unicode="h" horiz-adv-x="1087" d="M372 0Q325 -9 259 -9Q199 -9 149 0V1458L162 1471H249Q319 1471 345 1438T372 1328V0ZM947 219Q947 166 954 118T982 35Q958 14 920 0T840 -14Q773 -14 746 22T719 130V621Q719 715 695 758T602 802Q556 802 501 779T396
713T315 610V823Q382 899 476 952T679 1006Q772 1006 831 962T918 843T947 673V219Z" />
<glyph unicode="i" horiz-adv-x="553" d="M407 0Q384 -4 354 -6T294 -9Q264 -9 234 -7T180 0V719Q180 771 161 798T92 825H67Q58 865 58 905Q58 924 60 945T67 987Q107 992 143 994T205 996H234Q315 996 361 946T407 807V0ZM119 1259Q119 1282 124 1308T138 1354Q158
1365 191 1372T256 1379Q287 1379 322 1372T374 1354Q383 1334 388 1308T393 1259Q393 1236 388 1210T374 1165Q358 1154 323 1147T256 1139Q225 1139 191 1146T138 1165Q129 1184 124 1210T119 1259Z" />
<glyph unicode="j" horiz-adv-x="566" d="M420 -22Q420 -146 394 -228T302 -361T113 -439Q89 -418 71 -380T47 -300Q104 -272 136 -243T182 -170T196 -53V719Q196 771 177 798T107 825H65Q56 865 56 905Q56 924 58 945T65 987Q109 992 152 994T221 996H251Q330
996 375 946T420 807V-22ZM129 1259Q129 1282 134 1308T148 1354Q168 1365 201 1372T266 1379Q297 1379 332 1372T384 1354Q393 1334 398 1308T403 1259Q403 1236 398 1210T384 1165Q368 1154 333 1147T266 1139Q235 1139 201 1146T148 1165Q139 1184 134 1210T129
1259Z" />
<glyph unicode="k" horiz-adv-x="1012" d="M372 0Q349 -4 320 -6T259 -9Q197 -9 149 0V1458L162 1471H249Q319 1471 345 1438T372 1328V0ZM886 216Q910 152 931 115T982 57Q957 27 916 7T829 -14Q772 -14 744 15T694 107L617 298Q587 373 554 398T457 424Q426
424 395 422T330 416L256 408V571H533Q642 571 711 526T821 377L886 216ZM714 641Q673 569 608 536T448 503H281V607L432 612Q450 612 461 619T482 642L643 904Q668 949 700 972T786 996Q821 996 849 996T908 993L920 977L714 641Z" />
<glyph unicode="l" horiz-adv-x="595" d="M519 170Q527 145 532 116T538 57Q538 44 537 31T532 7Q496 1 447 -4T353 -9Q249 -9 198 45T146 211V1458L159 1471H246Q316 1471 342 1438T368 1328V259Q368 170 449 170H519Z" />
<glyph unicode="m" horiz-adv-x="1599" d="M247 999Q316 999 346 956T376 836V0Q353 -4 323 -6T263 -9Q233 -9 203 -7T149 0V985L162 999H247ZM689 622Q689 722 660 762T576 803Q528 802 473 771T372 688T300 576V791Q344 851 400 900T521 978T654 1007Q741 1007
800 966T888 855T917 696V0Q893 -4 863 -6T804 -9Q774 -9 744 -7T689 0V622ZM1230 624Q1230 724 1200 763T1116 803Q1070 803 1016 772T914 689T835 570V811Q883 865 942 909T1067 980T1200 1007Q1287 1007 1344 966T1430 853T1458 693V219Q1458 166 1465 118T1494
35Q1469 14 1432 0T1352 -14Q1285 -14 1258 22T1230 130V624Z" />
<glyph unicode="n" horiz-adv-x="1092" d="M247 999Q317 999 346 956T376 836V0Q353 -4 323 -6T263 -9Q233 -9 203 -7T149 0V986L162 999H247ZM951 219Q951 166 959 118T988 35Q963 14 925 0T845 -14Q778 -14 751 22T724 130V622Q724 717 700 760T607 803Q560
803 506 780T401 714T319 611V825Q387 900 481 953T683 1007Q777 1007 835 963T922 844T951 674V219Z" />
<glyph unicode="o" horiz-adv-x="1041" d="M959 495Q959 341 909 223T762 39T520 -27Q376 -27 279 40T132 224T83 495Q83 649 132 766T279 950T520 1016Q665 1016 762 950T909 766T959 495ZM317 495Q317 404 334 325T395 196T521 146Q602 146 646 195T707 324T724
495Q724 586 707 665T646 795T521 845Q440 845 396 795T334 666T317 495Z" />
<glyph unicode="p" horiz-adv-x="1063" d="M229 999Q301 999 336 951T372 817V-288Q372 -364 346 -397T249 -431H162L149 -418V986L162 999H229ZM980 507Q980 330 924 213T780 39T593 -18Q496 -18 416 22T267 112L295 286Q353 241 421 201T559 161Q614 161 656
199T723 314T748 508Q748 622 725 692T663 795T578 828Q532 828 480 803T381 721T309 571L262 729Q279 799 331 865T460 973T632 1016Q748 1016 825 952T941 772T980 507Z" />
<glyph unicode="q" horiz-adv-x="1062" d="M84 493Q84 670 140 785T284 958T470 1016Q559 1016 624 989T735 922T813 839L780 645Q727 732 652 785T507 838Q451 838 408 800T341 685T316 491Q316 321 365 246T482 170Q559 170 629 220T740 351L774 178Q746 131
696 86T578 12T434 -18Q317 -18 239 46T123 226T84 493ZM690 734Q690 835 736 912T887 1004Q913 988 937 953T968 887Q937 861 925 812T912 707V-418L900 -431H813Q743 -431 717 -398T690 -288V734Z" />
<glyph unicode="r" horiz-adv-x="748" d="M740 991Q740 947 727 886T684 777Q663 783 642 785T599 789Q545 789 505 767T435 710T385 630T349 540L318 580Q320 653 337 727T389 864T483 965T628 1003Q659 1003 685 1000T740 991ZM92 884Q100 915 123 951T171 1004Q279
985 332 904T393 697V0Q370 -4 341 -6T280 -9Q250 -9 220 -7T166 0V678Q166 760 142 811T92 884Z" />
<glyph unicode="s" horiz-adv-x="877" d="M57 73Q59 110 80 156T129 230Q193 196 264 169T409 142Q486 142 530 174T576 256Q576 296 546 329T457 384L342 426Q273 451 216 489T124 582T89 714Q89 808 136 875T264 979T449 1016Q533 1016 627 994T784 942Q785
914 777 882T754 822T718 777Q664 802 594 823T449 845Q389 845 353 816T317 739Q317 700 345 674T431 627L554 582Q667 541 739 468T811 276Q811 136 702 55T411 -27Q305 -27 214 3T57 73Z" />
<glyph unicode="t" horiz-adv-x="710" d="M187 1152Q187 1228 213 1261T309 1295H396L409 1281V257Q409 217 428 194T493 170H626Q644 117 644 57Q644 44 643 31T639 7Q588 0 528 -4T409 -9Q300 -9 244 45T187 211V1152ZM654 991Q665 951 665 909Q665 864 654
825L318 830L38 825Q29 866 29 909Q29 949 38 991L322 987L654 991Z" />
<glyph unicode="u" horiz-adv-x="1095" d="M943 281Q943 225 955 176T999 101Q991 70 968 36T918 -15Q813 1 765 78T716 258V989Q738 994 768 996T829 998Q859 998 889 996T943 989V281ZM141 771Q141 824 133 871T105 954Q130 975 168 989T247 1003Q314 1003 341
967T368 860V367Q368 274 392 231T485 187Q532 187 586 209T691 275T772 378V166Q705 90 612 36T409 -18Q316 -18 257 26T170 146T141 316V771Z" />
<glyph unicode="v" horiz-adv-x="920" d="M701 990Q723 995 744 996T786 998Q817 998 846 994T902 981L908 971Q875 857 834 723T751 455T672 202T606 0Q568 -6 525 -8T440 -11Q373 -11 337 11T277 111L7 972Q43 988 76 996T137 1005Q187 1005 217 983T263 905L388
479Q403 432 416 378T441 276T458 197Q461 186 464 184T477 181L701 990Z" />
<glyph unicode="w" horiz-adv-x="1458" d="M38 975Q75 991 107 998T169 1005Q217 1005 241 983T276 911L361 514Q381 420 398 331T424 186Q427 169 440 169L596 983Q623 990 665 992T730 995Q755 995 798 993T866 983L1019 186Q1022 169 1035 169Q1052 252 1068
338T1104 514L1209 990Q1228 995 1253 997T1303 999Q1329 999 1362 996T1419 981L1426 969L1185 -1Q1151 -6 1103 -8T1014 -10Q949 -10 912 10T860 108L807 373Q798 426 786 493T761 635T736 781H726Q714 710 701 637T674 495T650 375L573 0Q537 -5 487 -7T394
-10Q335 -10 298 12T243 110L38 975Z" />
<glyph unicode="x" horiz-adv-x="929" d="M49 955Q84 980 126 993T205 1007Q247 1007 272 990T320 937L908 36Q876 14 834 -1T752 -16Q710 -16 683 1T634 53L49 955ZM659 989Q676 994 701 996T750 999Q784 999 812 995T863 983L870 966L552 472L493 411L242 -1Q226
-6 200 -8T149 -11Q116 -11 86 -7T32 7L25 24L374 567L439 630L659 989Z" />
<glyph unicode="y" horiz-adv-x="947" d="M665 31Q623 -118 570 -222T433 -382T211 -437Q161 -437 102 -426T9 -403Q6 -364 20 -316T57 -241Q83 -249 127 -257T212 -266Q276 -266 319 -238T392 -158T443 -36L450 -11Q385 -9 345 14T285 100L28 972Q66 989 102
997T167 1005Q208 1005 236 985T280 905L407 459Q420 416 433 363T457 260T476 172Q480 158 495 158L705 990Q725 995 751 997T800 999Q830 999 860 996T918 983L926 969L665 31Z" />
<glyph unicode="z" horiz-adv-x="894" d="M409 628Q444 674 488 725T569 820L563 828Q532 825 486 822T391 818T300 816H101Q97 833 96 853T94 887Q94 910 97 937T106 989H781Q797 943 805 913T813 858Q813 841 807 822T786 784L477 367Q443 321 401 270T323 175L329
167Q377 172 424 174T508 176H598Q662 176 716 182T809 205Q820 177 825 154T831 106Q831 57 801 29T693 0H96Q79 47 73 73T66 121Q66 140 73 162T100 210L409 628Z" />
<glyph unicode="{" horiz-adv-x="713" d="M85 626Q156 646 203 708T251 858V1194Q251 1341 333 1423T542 1527L651 1544Q667 1527 678 1499T693 1441T693 1391L589 1357Q539 1342 510 1300T481 1192V862Q481 766 435 681T312 559V543Q389 509 435 424T481 241V-89Q481
-156 510 -197T589 -254L693 -288Q698 -308 694 -338T678 -396T651 -442L542 -424Q416 -403 334 -320T251 -91V245Q251 332 204 395T85 478Q75 504 75 551T85 626Z" />
<glyph unicode="|" horiz-adv-x="517" d="M152 1548Q176 1554 207 1556T259 1558Q283 1558 311 1556T365 1548V-282Q339 -288 311 -290T259 -292Q238 -292 207 -290T152 -282V1548Z" />
<glyph unicode="}" horiz-adv-x="713" d="M628 626Q557 646 510 708T463 858V1194Q463 1341 381 1423T171 1527L62 1544Q47 1527 36 1499T21 1441T21 1391L124 1357Q174 1342 203 1300T232 1192V862Q232 766 278 681T401 559V543Q325 509 279 424T232 241V-89Q232
-156 203 -197T124 -254L21 -288Q16 -308 20 -338T36 -396T62 -442L171 -424Q298 -403 380 -320T463 -91V245Q463 332 510 395T628 478Q639 504 639 551T628 626Z" />
<glyph unicode="~" horiz-adv-x="1190" d="M720 651Q747 640 772 634T820 627Q855 627 885 644T939 690L979 735Q1016 733 1057 709T1114 647L1085 596Q1037 510 965 463T801 415Q759 415 716 426T629 456L469 527Q443 539 418 545T369 552Q335 552 306 536T251
489L210 443Q175 447 134 470T76 532L105 583Q153 668 225 716T390 764Q431 764 474 753T562 723L720 651Z" />
<glyph unicode="&#xa0;" horiz-adv-x="440" />
<glyph unicode="&#xa1;" horiz-adv-x="584" d="M385 594Q397 396 411 200T425 -197V-376Q393 -385 345 -388T249 -388T168 -375V-195Q168 3 183 199T210 594Q232 601 254 603T297 605Q315 605 339 603T385 594ZM297 758Q223 758 177 784Q169 799 164 830T159 883Q159
905 164 935T177 981Q199 994 232 1000T297 1007Q330 1007 362 1001T417 981Q425 966 429 936T434 883Q434 861 430 830T417 784Q395 772 363 765T297 758Z" />
<glyph unicode="&#xa2;" horiz-adv-x="1080" d="M565 -51Q543 -51 519 -49T476 -42V249H653V-42Q635 -46 611 -48T565 -51ZM482 1007V1308Q500 1312 524 1314T571 1317Q593 1317 617 1315T659 1308V1007H482ZM569 134Q441 134 355 178T217 295T144 455T121 629Q121
805 186 916T355 1079T576 1132Q671 1132 743 1106T863 1035T937 939T962 833Q962 770 934 736T841 702Q820 702 799 705T758 713Q760 772 744 828T686 921T570 958Q465 958 409 874T353 629Q353 469 420 395T603 320Q672 320 738 350T856 424Q886 406 915 369T956
295Q914 246 851 210T716 154T569 134Z" />
<glyph unicode="&#xa3;" horiz-adv-x="1080" d="M174 0Q154 56 149 84T144 131Q144 166 162 191T201 241L226 268Q267 314 296 365T325 487Q325 568 302 638T256 779T233 929Q233 1025 280 1109T416 1244T629 1296Q737 1296 822 1256T966 1163Q957 1120 927 1077T856
1011Q810 1053 755 1079T644 1105Q574 1105 519 1060T464 914Q464 852 482 789T517 656T535 505Q535 409 488 328T373 185L378 180Q448 186 533 188T713 191H981Q981 78 944 39T830 0H174ZM152 528Q144 562 144 610Q144 657 152 694L407 692L816 694Q820 677 822
656T825 612Q825 590 823 568T816 528L407 530L152 528Z" />
<glyph unicode="&#xa4;" horiz-adv-x="1080" d="M538 242Q424 242 336 291T197 429T147 632Q147 748 197 836T335 974T538 1024Q654 1024 742 975T881 837T931 632Q931 518 881 430T743 292T538 242ZM538 404Q632 404 679 471T726 632Q726 727 679 794T538 862Q446
862 400 795T353 632Q353 539 399 472T538 404ZM172 143Q137 162 105 195T51 264L261 494L403 351L172 143ZM261 769L51 999Q70 1035 103 1068T172 1121L401 913L261 769ZM820 771L678 914L908 1123Q943 1104 975 1071T1029 1002L820 771ZM904 142L675 351L817
492L1026 263Q1007 228 975 196T904 142Z" />
<glyph unicode="&#xa5;" horiz-adv-x="1080" d="M429 443L79 1247Q114 1265 152 1276T226 1287Q302 1287 335 1199L454 910Q476 853 497 791T539 657H550Q570 722 595 789T641 910L787 1270Q810 1276 832 1278T876 1280Q904 1280 933 1277T993 1266L1001 1248L645
443H429ZM538 -9Q516 -9 484 -7T424 0V511H649V0Q621 -5 591 -7T538 -9ZM140 314Q136 332 134 351T131 393Q131 414 133 434T140 471H934Q944 433 944 393Q944 355 934 314H140ZM140 619Q136 635 134 655T131 698Q131 720 133 740T140 777H414V619H140ZM660 619V777H934Q938
762 941 742T944 698Q944 677 941 657T934 619H660Z" />
<glyph unicode="&#xa6;" horiz-adv-x="505" d="M147 492Q171 498 201 500T253 502Q277 502 305 500T358 492V-282Q333 -288 305 -290T253 -292Q232 -292 202 -290T147 -282V492ZM147 1548Q171 1554 201 1556T253 1558Q277 1558 305 1556T358 1548V774Q333 768
305 766T253 764Q232 764 202 766T147 774V1548Z" />
<glyph unicode="&#xa7;" horiz-adv-x="977" d="M509 373Q582 399 638 451T694 575Q694 619 667 652T593 710T491 757L390 797Q320 825 262 865T169 962T134 1096Q134 1182 181 1249T311 1354T499 1393Q581 1393 667 1372T816 1322Q818 1280 799 1233T750 1161Q696
1184 632 1202T504 1221Q442 1221 402 1192T361 1113Q361 1071 392 1044T478 995L594 948Q680 913 753 869T872 764T918 611Q918 529 871 460T748 340T584 262L509 373ZM469 802Q422 784 380 755T311 687T284 600Q284 556 311 524T385 466T489 417L589 378Q660
350 718 310T810 212T845 77Q845 -9 798 -76T665 -181T467 -220Q380 -220 288 -197T130 -136Q128 -94 150 -46T201 24Q252 -1 321 -25T470 -49Q537 -49 577 -20T618 60Q618 101 588 129T502 180L385 227Q300 263 226 306T107 411T61 564Q61 646 108 715T231 835T395
913L469 802Z" />
<glyph unicode="&#xa8;" horiz-adv-x="796" d="M90 1234Q90 1253 93 1276T105 1318Q125 1330 154 1336T209 1343Q235 1343 264 1337T313 1318Q321 1300 324 1277T328 1234Q328 1215 325 1192T313 1150Q293 1139 264 1132T209 1125Q183 1125 154 1132T105 1150Q97
1168 94 1191T90 1234ZM468 1234Q468 1253 471 1276T483 1318Q503 1330 532 1336T587 1343Q613 1343 642 1337T691 1318Q699 1300 703 1277T707 1234Q707 1215 703 1192T691 1150Q672 1139 643 1132T587 1125Q561 1125 532 1132T483 1150Q475 1168 472 1191T468
1234Z" />
<glyph unicode="&#xa9;" horiz-adv-x="1600" d="M77 682Q77 835 131 966T284 1196T514 1350T799 1405Q952 1405 1083 1350T1313 1197T1467 967T1522 682Q1522 529 1467 398T1314 168T1084 16T799 -39Q646 -39 515 15T285 168T132 397T77 682ZM262 682Q262 565
301 463T413 284T583 163T799 119Q916 119 1014 162T1185 283T1298 463T1338 682Q1338 799 1298 901T1186 1081T1015 1203T799 1247Q682 1247 584 1203T413 1082T302 902T262 682ZM931 753Q933 798 922 840T881 911T798 939Q725 939 685 874T645 683Q645 562 693
499T827 436Q874 436 925 459T1018 513Q1043 499 1064 468T1092 407Q1043 357 961 323T798 289Q679 289 603 342T490 486T453 683Q453 823 505 910T639 1038T805 1079Q900 1079 966 1044T1067 954T1102 843Q1102 797 1079 770T1002 743Q983 743 964 746T931 753Z"
/>
<glyph unicode="&#xaa;" horiz-adv-x="862" d="M79 712Q79 803 119 860T229 945T387 972Q432 972 488 968T595 958V828Q552 835 499 839T398 843Q337 843 304 811T270 724Q270 683 295 653T368 623Q420 623 484 664T591 776L623 642Q593 607 549 569T448 503T320
476Q241 476 188 510T107 598T79 712ZM773 585Q769 558 747 528T696 484Q616 495 572 553T528 704V1020Q528 1084 495 1112T414 1140Q351 1140 292 1126T166 1086Q144 1109 129 1145T113 1220Q183 1250 276 1271T454 1293Q531 1293 592 1265T688 1178T724 1027V716Q724
672 733 640T773 585Z" />
<glyph unicode="&#xab;" horiz-adv-x="1139" d="M787 514L1068 187Q1060 164 1040 139T993 96T940 69L543 440Q531 468 531 510T543 580L933 951Q971 941 1008 905T1058 832L787 514ZM318 514L599 187Q591 164 571 139T524 96T471 69L74 440Q62 468 62 510T74
580L464 951Q502 941 539 905T589 832L318 514Z" />
<glyph unicode="&#xac;" horiz-adv-x="1080" d="M111 736Q106 713 104 687T102 641Q102 622 104 595T111 545H651Q679 545 708 546T763 547L958 545V724L945 736H111ZM755 565Q756 538 755 507T753 447V274Q781 269 806 267T858 265Q885 265 910 267T958 274V640H753L755
565Z" />
<glyph unicode="&#xad;" horiz-adv-x="710" d="M100 438Q95 462 93 488T91 534Q91 555 93 581T100 631H610Q616 608 618 582T620 534Q620 514 618 488T610 438H100Z" />
<glyph unicode="&#xae;" horiz-adv-x="1189" d="M66 957Q66 1105 136 1225T326 1416T594 1487Q742 1487 862 1417T1052 1226T1123 957Q1123 809 1053 690T862 500T594 430Q446 430 326 500T136 689T66 957ZM212 957Q212 848 261 759T398 616T594 562Q704 562 790
615T927 758T977 957Q977 1067 927 1156T791 1300T594 1354Q485 1354 398 1300T262 1157T212 957ZM801 1070Q801 1012 770 980T700 937Q722 927 735 910T766 860L793 809Q802 793 812 777T837 752Q824 732 800 719T748 705Q720 705 703 720T670 766L623 858Q613
876 600 885T563 895H466V994Q492 995 531 995T590 996Q631 996 649 1014T667 1059Q667 1083 650 1101T597 1120Q579 1120 560 1120T526 1120V715Q500 707 461 707Q422 707 397 715V1209L403 1214Q453 1216 507 1217T607 1219Q709 1219 755 1177T801 1070Z" />
<glyph unicode="&#xaf;" horiz-adv-x="796" d="M113 1149Q101 1189 101 1237Q101 1284 113 1327H684Q690 1303 692 1285T695 1238Q695 1191 684 1149H113Z" />
<glyph unicode="&#xb0;" horiz-adv-x="753" d="M59 974Q59 1066 100 1138T214 1251T377 1293Q468 1293 539 1252T652 1138T694 974Q694 881 653 809T540 696T377 654Q286 654 214 695T101 809T59 974ZM228 974Q228 899 268 852T377 805Q444 805 483 852T523 974Q523
1047 484 1094T377 1142Q308 1142 268 1095T228 974Z" />
<glyph unicode="&#xb1;" horiz-adv-x="1080" d="M142 787Q137 763 135 745T133 699Q133 673 135 653T142 608H339Q366 608 395 609T450 610H630Q657 610 685 609T742 608H938Q943 633 945 653T947 699Q947 726 945 744T938 787H742Q714 787 686 786T630 785H450Q424
785 395 786T339 787H142ZM440 894Q440 866 441 836T442 778V618Q442 592 441 561T440 503V314Q464 309 489 308T541 306Q567 306 592 307T641 314V503Q641 530 640 561T639 618V778Q639 805 640 835T641 894V1091Q618 1096 593 1098T541 1100Q514 1100 489 1098T440
1091V894ZM142 0Q137 25 135 46T133 93Q133 120 135 139T142 184H938Q943 158 945 139T947 93Q947 67 945 46T938 0H142Z" />
<glyph unicode="&#xb2;" horiz-adv-x="832" d="M114 1292Q139 1380 213 1441T403 1503Q529 1503 606 1428T683 1240Q683 1170 655 1118T588 1028T515 966L423 900Q362 856 328 820T293 753V638H165Q129 679 116 704T102 757Q102 815 148 876T257 987L383 1083Q421
1113 453 1149T485 1237Q485 1282 458 1310T387 1338Q342 1337 310 1305T260 1226Q236 1228 206 1237T151 1260T114 1292ZM706 809Q706 736 693 700T655 651T594 638H191L168 755Q234 784 323 796T511 809H706Z" />
<glyph unicode="&#xb3;" horiz-adv-x="832" d="M509 912Q509 974 471 1007T380 1040Q360 1040 340 1036T302 1022Q277 1034 255 1064T226 1125Q282 1142 342 1153T454 1164Q521 1164 578 1134T670 1046T705 910Q705 815 657 752T535 658T377 626Q290 626 219 651T101
715Q108 752 129 787T177 845Q216 818 263 800T366 781Q430 781 469 815T509 912ZM532 1203Q500 1174 444 1141T331 1089L226 1125L375 1271Q392 1286 413 1304T452 1335L448 1340Q422 1336 374 1334T295 1331H141Q136 1350 134 1368T132 1401Q132 1420 135 1443T148
1489H632Q645 1466 657 1436T669 1378Q669 1353 659 1334T626 1296L532 1203Z" />
<glyph unicode="&#xb4;" horiz-adv-x="796" d="M467 1490Q515 1475 559 1434T621 1345L273 1077Q243 1086 215 1111T175 1168L467 1490Z" />
<glyph unicode="&#xb5;" horiz-adv-x="1107" d="M229 460V325Q229 232 263 154T362 28T511 -19Q610 -19 680 35T790 172L777 374Q736 285 676 231T537 177Q461 177 417 227T372 366V460H229ZM954 989Q930 994 900 996T839 998Q809 998 780 996T726 989V259Q726
157 774 79T928 -15Q954 2 978 36T1010 101Q978 127 966 176T954 282V989ZM372 989Q325 998 261 998Q230 998 201 996T148 989V-205Q148 -246 142 -299T112 -391Q140 -413 175 -425T251 -437Q319 -437 339 -396T360 -284V160H372V989Z" />
<glyph unicode="&#xb6;" horiz-adv-x="1373" d="M569 122Q569 38 554 -19T498 -106T379 -135Q332 -135 280 -122T187 -94Q162 -126 148 -177T133 -264Q178 -282 251 -297T401 -313Q554 -313 640 -258T763 -97T799 162V1355L787 1368Q717 1371 664 1373T544 1376Q410
1376 305 1330T138 1188T77 939Q77 791 137 693T301 545T534 496H569V122ZM928 1353L942 1366H1161V-265Q1133 -270 1103 -272T1045 -274Q1021 -274 988 -272T928 -265V1353ZM1046 1366H1322Q1329 1344 1331 1305T1332 1228T1322 1166H1247Q1215 1166 1183 1168T1123
1171H1046V1366Z" />
<glyph unicode="&#xb7;" horiz-adv-x="619" d="M170 527Q170 545 174 578T188 631Q209 643 243 651T310 660Q339 660 375 652T431 631Q441 611 445 578T450 527Q450 509 446 476T431 423Q412 410 376 403T310 395Q278 395 244 402T188 423Q179 443 175 476T170 527Z" />
<glyph unicode="&#xb8;" horiz-adv-x="796" d="M258 -150Q270 -116 291 -67T331 12H465Q455 -2 442 -28T421 -71Q497 -78 549 -125T602 -247Q602 -337 532 -393T354 -450Q307 -450 264 -438T194 -409Q196 -379 208 -350T237 -298Q256 -309 282 -317T336 -325Q380
-325 401 -304T422 -252Q422 -221 401 -200T341 -178Q329 -178 317 -180T295 -187Q283 -182 273 -172T258 -150Z" />
<glyph unicode="&#xb9;" horiz-adv-x="832" d="M552 722H365V1087Q365 1110 367 1145T372 1220T374 1292L372 1486Q396 1492 419 1494T464 1496Q485 1496 505 1494T552 1486V722ZM268 797Q287 797 317 797T365 796H552Q568 796 602 796T654 797H715Q720 778 722
758T724 718Q724 699 722 679T715 638H164Q160 660 158 679T156 718Q156 736 158 757T164 797H268ZM107 1210Q214 1273 273 1337T372 1486L439 1360Q411 1261 350 1198T192 1090Q160 1106 137 1141T107 1210Z" />
<glyph unicode="&#xba;" horiz-adv-x="843" d="M769 885Q769 791 744 707T654 560Q611 518 551 497T421 475Q351 475 291 496T188 560Q126 623 100 707T73 885Q73 978 98 1062T188 1209Q276 1293 421 1293Q490 1293 551 1273T654 1209Q717 1144 743 1061T769 885ZM268
885Q268 814 282 756T331 662T422 626Q479 626 512 661T559 755T574 885Q574 956 560 1014T512 1108T422 1143Q365 1143 331 1108T283 1015T268 885Z" />
<glyph unicode="&#xbb;" horiz-adv-x="1139" d="M352 507L71 833Q79 858 99 882T147 925T199 951L596 580Q608 552 608 511T596 441L206 69Q168 81 131 116T81 188L352 507ZM821 507L540 833Q548 858 568 882T616 925T668 951L1065 580Q1077 552 1077 511T1065
441L675 69Q637 81 600 116T550 188L821 507Z" />
<glyph unicode="&#xbc;" horiz-adv-x="2019" d="M552 855H365V1220Q365 1243 367 1278T372 1353T374 1425L372 1619Q396 1625 419 1627T464 1629Q485 1629 505 1627T552 1619V855ZM268 930Q287 930 317 930T365 929H552Q568 929 602 929T654 930H715Q720 911 722
891T724 851Q724 832 722 812T715 771H164Q160 793 158 812T156 851Q156 869 158 890T164 930H268ZM107 1343Q214 1406 273 1470T372 1619L439 1493Q411 1394 350 1331T192 1223Q160 1239 137 1274T107 1343ZM1335 1366Q1364 1374 1409 1376T1496 1376T1557 1366L803
0Q775 -8 730 -10T644 -10T581 0L1335 1366ZM1317 154Q1301 181 1288 212T1275 268Q1275 286 1285 315T1304 360L1533 861Q1576 867 1630 856T1713 820L1572 516Q1560 490 1542 452T1504 376T1463 312L1466 308Q1492 311 1521 312T1575 313T1614 314H1810Q1825
314 1842 314T1875 315H1927Q1930 300 1932 281T1934 243Q1934 220 1931 196T1921 154H1871Q1858 154 1840 154T1809 155H1633Q1618 155 1594 155T1548 154H1317ZM1632 79Q1632 100 1632 119T1633 155V290Q1633 301 1633 322T1632 355V416Q1632 477 1665 515T1754
553H1804L1811 546V409Q1811 387 1810 361T1809 314V155Q1809 138 1810 119T1811 79V2Q1791 -3 1768 -5T1722 -8Q1699 -8 1675 -6T1632 2V79Z" />
<glyph unicode="&#xbd;" horiz-adv-x="2048" d="M552 855H365V1220Q365 1243 367 1278T372 1353T374 1425L372 1619Q396 1625 419 1627T464 1629Q485 1629 505 1627T552 1619V855ZM268 930Q287 930 317 930T365 929H552Q568 929 602 929T654 930H715Q720 911 722
891T724 851Q724 832 722 812T715 771H164Q160 793 158 812T156 851Q156 869 158 890T164 930H268ZM107 1343Q214 1406 273 1470T372 1619L439 1493Q411 1394 350 1331T192 1223Q160 1239 137 1274T107 1343ZM1335 1366Q1364 1374 1409 1376T1496 1376T1557 1366L803
0Q775 -8 730 -10T644 -10T581 0L1335 1366ZM1330 654Q1355 742 1429 803T1619 865Q1745 865 1822 790T1899 602Q1899 532 1871 480T1804 390T1731 328L1639 262Q1578 218 1544 182T1509 115V0H1381Q1345 41 1332 66T1318 119Q1318 177 1364 238T1473 349L1599
445Q1637 475 1669 511T1701 599Q1701 644 1674 672T1603 700Q1558 699 1526 667T1476 588Q1452 590 1422 599T1367 622T1330 654ZM1922 171Q1922 98 1909 62T1871 13T1810 0H1407L1384 117Q1450 146 1539 158T1727 171H1922Z" />
<glyph unicode="&#xbe;" horiz-adv-x="1979" d="M509 1045Q509 1107 471 1140T380 1173Q360 1173 340 1169T302 1155Q277 1167 255 1197T226 1258Q282 1275 342 1286T454 1297Q521 1297 578 1267T670 1179T705 1043Q705 948 657 885T535 791T377 759Q290 759 219
784T101 848Q108 885 129 920T177 978Q216 951 263 933T366 914Q430 914 469 948T509 1045ZM532 1336Q500 1307 444 1274T331 1222L226 1258L375 1404Q392 1419 413 1437T452 1468L448 1473Q422 1469 374 1467T295 1464H141Q136 1483 134 1501T132 1534Q132 1553
135 1576T148 1622H632Q645 1599 657 1569T669 1511Q669 1486 659 1467T626 1429L532 1336ZM1295 1366Q1324 1374 1369 1376T1456 1376T1517 1366L763 0Q735 -8 690 -10T604 -10T541 0L1295 1366ZM1277 154Q1261 181 1248 212T1235 268Q1235 286 1245 315T1264
360L1493 861Q1536 867 1590 856T1673 820L1532 516Q1520 490 1502 452T1464 376T1423 312L1426 308Q1452 311 1481 312T1535 313T1574 314H1770Q1785 314 1802 314T1835 315H1887Q1890 300 1892 281T1894 243Q1894 220 1891 196T1881 154H1831Q1818 154 1800 154T1769
155H1593Q1578 155 1554 155T1508 154H1277ZM1592 79Q1592 100 1592 119T1593 155V290Q1593 301 1593 322T1592 355V416Q1592 477 1625 515T1714 553H1764L1771 546V409Q1771 387 1770 361T1769 314V155Q1769 138 1770 119T1771 79V2Q1751 -3 1728 -5T1682 -8Q1659
-8 1635 -6T1592 2V79Z" />
<glyph unicode="&#xbf;" horiz-adv-x="801" d="M791 -302Q709 -348 610 -377T404 -407Q226 -407 125 -312T24 -61Q24 80 99 174T285 328L409 397L426 590Q446 597 467 600T510 603Q531 603 555 600T600 590L612 292L594 268L494 219Q393 168 329 107T265 -38Q265
-114 314 -160T454 -207Q520 -207 585 -186T708 -134Q738 -159 763 -208T791 -302ZM510 758Q478 758 445 765T390 785Q382 799 377 830T372 883Q372 905 377 935T390 981Q412 994 445 1001T510 1008Q584 1008 631 981Q639 966 644 936T649 883Q649 861 644 830T631
785Q584 758 510 758Z" />
<glyph unicode="&#xc0;" horiz-adv-x="1234" d="M485 1366Q513 1370 552 1372T621 1375Q648 1375 688 1373T753 1365L1198 15Q1173 0 1136 -7T1063 -15Q1007 -15 976 10T923 110L718 768Q691 855 663 956T611 1140H600Q590 1093 576 1037T546 927T519 833L257
-2Q235 -7 210 -9T156 -11Q127 -11 96 -7T43 5L35 17L485 1366ZM468 321Q458 321 432 321T379 322T341 323H228L300 511H400Q410 511 433 511T481 512T515 513H704Q715 513 738 513T787 512T822 511H924L986 323H873Q863 323 836 323T782 322T745 321H468ZM442
1820Q421 1805 400 1775T363 1709T343 1637L788 1456Q817 1474 833 1507T855 1572L442 1820Z" />
<glyph unicode="&#xc1;" horiz-adv-x="1234" d="M485 1366Q513 1370 552 1372T621 1375Q648 1375 688 1373T753 1365L1198 15Q1173 0 1136 -7T1063 -15Q1007 -15 976 10T923 110L718 768Q691 855 663 956T611 1140H600Q590 1093 576 1037T546 927T519 833L257
-2Q235 -7 210 -9T156 -11Q127 -11 96 -7T43 5L35 17L485 1366ZM468 321Q458 321 432 321T379 322T341 323H228L300 511H400Q410 511 433 511T481 512T515 513H704Q715 513 738 513T787 512T822 511H924L986 323H873Q863 323 836 323T782 322T745 321H468ZM823
1820Q844 1805 865 1775T901 1709T920 1637L476 1456Q450 1472 432 1507T409 1572L823 1820Z" />
<glyph unicode="&#xc2;" horiz-adv-x="1234" d="M485 1366Q513 1370 552 1372T621 1375Q648 1375 688 1373T753 1365L1198 15Q1173 0 1136 -7T1063 -15Q1007 -15 976 10T923 110L718 768Q691 855 663 956T611 1140H600Q590 1093 576 1037T546 927T519 833L257
-2Q235 -7 210 -9T156 -11Q127 -11 96 -7T43 5L35 17L485 1366ZM468 321Q458 321 432 321T379 322T341 323H228L300 511H400Q410 511 433 511T481 512T515 513H704Q715 513 738 513T787 512T822 511H924L986 323H873Q863 323 836 323T782 322T745 321H468ZM716
1785L941 1571Q929 1535 900 1509T844 1473L618 1623L391 1473Q366 1482 336 1508T294 1571L519 1785Q539 1788 565 1790T618 1793Q645 1793 670 1791T716 1785Z" />
<glyph unicode="&#xc3;" horiz-adv-x="1234" d="M485 1366Q513 1370 552 1372T621 1375Q648 1375 688 1373T753 1365L1198 15Q1173 0 1136 -7T1063 -15Q1007 -15 976 10T923 110L718 768Q691 855 663 956T611 1140H600Q590 1093 576 1037T546 927T519 833L257
-2Q235 -7 210 -9T156 -11Q127 -11 96 -7T43 5L35 17L485 1366ZM468 321Q458 321 432 321T379 322T341 323H228L300 511H400Q410 511 433 511T481 512T515 513H704Q715 513 738 513T787 512T822 511H924L986 323H873Q863 323 836 323T782 322T745 321H468ZM530
1565Q514 1574 498 1578T465 1583Q445 1583 425 1570T387 1534L365 1506Q332 1507 298 1526T252 1575L266 1608Q298 1681 353 1723T481 1766Q515 1766 546 1756T602 1734L706 1684Q723 1676 741 1671T775 1665Q795 1665 815 1677T853 1714L875 1742Q908 1741 942
1722T989 1673L974 1639Q942 1567 887 1525T760 1482Q725 1482 694 1492T638 1513L530 1565Z" />
<glyph unicode="&#xc4;" horiz-adv-x="1234" d="M485 1366Q513 1370 552 1372T621 1375Q648 1375 688 1373T753 1365L1198 15Q1173 0 1136 -7T1063 -15Q1007 -15 976 10T923 110L718 768Q691 855 663 956T611 1140H600Q590 1093 576 1037T546 927T519 833L257
-2Q235 -7 210 -9T156 -11Q127 -11 96 -7T43 5L35 17L485 1366ZM468 321Q458 321 432 321T379 322T341 323H228L300 511H400Q410 511 433 511T481 512T515 513H704Q715 513 738 513T787 512T822 511H924L986 323H873Q863 323 836 323T782 322T745 321H468ZM832
1486Q805 1486 776 1492T726 1511Q718 1533 715 1556T711 1597Q711 1616 714 1639T726 1684Q747 1696 776 1702T832 1709Q860 1709 889 1703T939 1684Q948 1662 951 1639T954 1597Q954 1580 951 1557T939 1511Q918 1499 889 1493T832 1486ZM406 1486Q378 1486 349
1492T299 1511Q291 1533 288 1556T284 1597Q284 1616 287 1639T299 1684Q320 1696 349 1702T406 1709Q433 1709 462 1703T512 1684Q521 1662 524 1639T527 1597Q527 1580 524 1557T512 1511Q491 1499 462 1493T406 1486Z" />
<glyph unicode="&#xc5;" horiz-adv-x="1234" d="M487 1374H751L1198 15Q1173 0 1136 -7T1063 -15Q1007 -15 976 10T923 110L718 768Q691 855 663 956T611 1140H600Q590 1093 576 1037T546 927T519 833L257 -2Q235 -7 210 -9T156 -11Q127 -11 96 -7T43 5L35 17L487
1374ZM468 321Q458 321 432 321T379 322T341 323H228L300 511H400Q410 511 433 511T481 512T515 513H704Q715 513 738 513T787 512T822 511H924L986 323H873Q863 323 836 323T782 322T745 321H468ZM369 1564Q369 1661 438 1729T620 1797Q731 1797 800 1729T869
1564Q869 1468 800 1400T620 1332Q508 1332 439 1400T369 1564ZM519 1564Q519 1518 547 1488T620 1457Q664 1457 692 1487T720 1564Q720 1611 692 1641T620 1672Q576 1672 548 1642T519 1564Z" />
<glyph unicode="&#xc6;" horiz-adv-x="1757" d="M669 1344Q697 1357 737 1361T810 1366H969L798 1140H787Q759 1066 724 983T658 831L264 -1Q238 -7 208 -8T151 -10Q119 -10 88 -6T34 5L26 17L669 1344ZM518 321Q495 321 455 322T394 323H301L389 510H474Q494
510 526 511T582 512H696Q712 512 736 512T783 511T820 510H904V323H819Q806 323 783 323T736 322T697 321H518ZM797 1353L810 1366H1021V1174Q1021 1132 1022 1104T1023 1035V303Q1023 274 1022 249T1021 192V-3H930Q868 -3 833 35T797 140V1353ZM1514 786Q1522
764 1524 736T1527 689Q1527 669 1525 643T1514 592H1150Q1127 592 1091 592T1015 594T945 595V783Q976 783 1015 784T1090 785T1150 786H1514ZM1625 1366Q1630 1340 1631 1317T1633 1273Q1633 1253 1629 1224T1615 1168H1150Q1127 1168 1091 1168T1015 1169T945
1171V1366H1625ZM1666 195Q1666 82 1631 40T1512 -3H945V186Q997 189 1045 192T1157 195H1666Z" />
<glyph unicode="&#xc7;" horiz-adv-x="1209" d="M910 880Q911 957 888 1031T806 1155T643 1204Q491 1204 416 1069T340 676Q340 435 424 306T660 177Q755 177 842 217T1013 327Q1050 303 1084 260T1128 176Q1072 120 993 74T819 1T619 -27Q473 -27 373 32T211
193T122 419T94 677Q94 927 170 1085T372 1318T649 1393Q799 1393 908 1338T1077 1193T1137 998Q1137 936 1105 901T1004 866Q978 866 957 869T910 880ZM514 -150Q526 -116 547 -67T587 12H721Q711 -2 698 -28T677 -71Q753 -78 805 -125T858 -247Q858 -337 788
-393T610 -450Q563 -450 520 -438T450 -409Q452 -379 464 -350T493 -298Q512 -309 538 -317T592 -325Q636 -325 657 -304T678 -252Q678 -221 657 -200T597 -178Q585 -178 573 -180T551 -187Q539 -182 529 -172T514 -150Z" />
<glyph unicode="&#xc8;" horiz-adv-x="1135" d="M174 1353L187 1366H403V1174Q403 1132 404 1104T405 1035V301Q405 272 404 248T403 192V-3H309Q246 -3 210 35T174 140V1353ZM893 786Q900 764 902 736T905 689Q905 669 903 643T893 592H532Q508 592 471 592T394
594T324 595V783Q354 783 394 784T471 785T532 786H893ZM1004 1366Q1009 1340 1010 1317T1011 1273Q1011 1253 1007 1224T993 1168H532Q508 1168 471 1168T394 1169T324 1171V1366H1004ZM1045 195Q1045 91 1013 44T890 -3H324V186Q375 189 424 192T538 195H1045ZM420
1820Q399 1805 378 1775T341 1709T321 1637L766 1456Q795 1474 811 1507T833 1572L420 1820Z" />
<glyph unicode="&#xc9;" horiz-adv-x="1135" d="M174 1353L187 1366H403V1174Q403 1132 404 1104T405 1035V301Q405 272 404 248T403 192V-3H309Q246 -3 210 35T174 140V1353ZM893 786Q900 764 902 736T905 689Q905 669 903 643T893 592H532Q508 592 471 592T394
594T324 595V783Q354 783 394 784T471 785T532 786H893ZM1004 1366Q1009 1340 1010 1317T1011 1273Q1011 1253 1007 1224T993 1168H532Q508 1168 471 1168T394 1169T324 1171V1366H1004ZM1045 195Q1045 91 1013 44T890 -3H324V186Q375 189 424 192T538 195H1045ZM801
1820Q822 1805 843 1775T879 1709T898 1637L454 1456Q428 1472 410 1507T387 1572L801 1820Z" />
<glyph unicode="&#xca;" horiz-adv-x="1135" d="M174 1353L187 1366H403V1174Q403 1132 404 1104T405 1035V301Q405 272 404 248T403 192V-3H309Q246 -3 210 35T174 140V1353ZM893 786Q900 764 902 736T905 689Q905 669 903 643T893 592H532Q508 592 471 592T394
594T324 595V783Q354 783 394 784T471 785T532 786H893ZM1004 1366Q1009 1340 1010 1317T1011 1273Q1011 1253 1007 1224T993 1168H532Q508 1168 471 1168T394 1169T324 1171V1366H1004ZM1045 195Q1045 91 1013 44T890 -3H324V186Q375 189 424 192T538 195H1045ZM695
1785L920 1571Q908 1535 879 1509T823 1473L597 1623L370 1473Q345 1482 315 1508T273 1571L498 1785Q518 1788 544 1790T597 1793Q624 1793 649 1791T695 1785Z" />
<glyph unicode="&#xcb;" horiz-adv-x="1135" d="M174 1353L187 1366H403V1174Q403 1132 404 1104T405 1035V301Q405 272 404 248T403 192V-3H309Q246 -3 210 35T174 140V1353ZM893 786Q900 764 902 736T905 689Q905 669 903 643T893 592H532Q508 592 471 592T394
594T324 595V783Q354 783 394 784T471 785T532 786H893ZM1004 1366Q1009 1340 1010 1317T1011 1273Q1011 1253 1007 1224T993 1168H532Q508 1168 471 1168T394 1169T324 1171V1366H1004ZM1045 195Q1045 91 1013 44T890 -3H324V186Q375 189 424 192T538 195H1045ZM810
1486Q783 1486 754 1492T704 1511Q696 1533 693 1556T689 1597Q689 1616 692 1639T704 1684Q725 1696 754 1702T810 1709Q838 1709 867 1703T917 1684Q926 1662 929 1639T932 1597Q932 1580 929 1557T917 1511Q896 1499 867 1493T810 1486ZM384 1486Q356 1486 327
1492T277 1511Q269 1533 266 1556T262 1597Q262 1616 265 1639T277 1684Q298 1696 327 1702T384 1709Q411 1709 440 1703T490 1684Q499 1662 502 1639T505 1597Q505 1580 502 1557T490 1511Q469 1499 440 1493T384 1486Z" />
<glyph unicode="&#xcc;" horiz-adv-x="596" d="M181 1366Q207 1371 240 1373T297 1375Q324 1375 355 1373T415 1366V0Q387 -5 356 -7T297 -9Q273 -9 240 -7T181 0V1366ZM120 1821Q99 1806 78 1776T41 1710T21 1638L466 1457Q495 1475 511 1508T533 1573L120 1821Z" />
<glyph unicode="&#xcd;" horiz-adv-x="596" d="M181 1366Q207 1371 240 1373T297 1375Q324 1375 355 1373T415 1366V0Q387 -5 356 -7T297 -9Q273 -9 240 -7T181 0V1366ZM501 1821Q522 1806 543 1776T579 1710T598 1638L154 1457Q128 1473 110 1508T87 1573L501 1821Z" />
<glyph unicode="&#xce;" horiz-adv-x="596" d="M181 1366Q207 1371 240 1373T297 1375Q324 1375 355 1373T415 1366V0Q387 -5 356 -7T297 -9Q273 -9 240 -7T181 0V1366ZM394 1786L619 1572Q607 1536 578 1510T522 1474L296 1624L69 1474Q44 1483 14 1509T-28 1572L197
1786Q217 1789 243 1791T296 1794Q323 1794 348 1792T394 1786Z" />
<glyph unicode="&#xcf;" horiz-adv-x="596" d="M181 1366Q207 1371 240 1373T297 1375Q324 1375 355 1373T415 1366V0Q387 -5 356 -7T297 -9Q273 -9 240 -7T181 0V1366ZM510 1487Q483 1487 454 1493T404 1512Q396 1534 393 1557T389 1598Q389 1617 392 1640T404
1685Q425 1697 454 1703T510 1710Q538 1710 567 1704T617 1685Q626 1663 629 1640T632 1598Q632 1581 629 1558T617 1512Q596 1500 567 1494T510 1487ZM84 1487Q56 1487 27 1493T-23 1512Q-31 1534 -34 1557T-38 1598Q-38 1617 -35 1640T-23 1685Q-2 1697 27 1703T84
1710Q111 1710 140 1704T190 1685Q199 1663 202 1640T205 1598Q205 1581 202 1558T190 1512Q169 1500 140 1494T84 1487Z" />
<glyph unicode="&#xd0;" horiz-adv-x="1335" d="M1239 684Q1239 567 1223 460T1162 259T1024 91Q981 55 919 33T792 1T673 -10Q591 -10 521 -9T378 -6T219 -2L206 11V1355L219 1368Q306 1371 378 1372T520 1374T673 1375Q727 1375 791 1365T918 1332T1024 1273Q1115
1199 1161 1106T1223 907T1239 684ZM996 684Q996 771 985 860T940 1023T843 1142T672 1188Q611 1188 556 1188T436 1190V178Q501 178 556 178T672 177Q778 177 842 223T940 344T984 508T996 684ZM57 596Q51 618 49 641T47 690Q47 715 49 740T57 789H735Q739 766
741 743T744 692Q744 640 735 596H57Z" />
<glyph unicode="&#xd1;" horiz-adv-x="1367" d="M175 1363Q204 1369 246 1372T314 1375Q341 1375 379 1373T453 1366L392 1095L375 1091Q380 1019 384 929T390 748T393 580V0Q364 -5 337 -7T286 -9Q264 -9 234 -7T175 0V1363ZM506 815Q470 889 439 960T382 1094L272
1224L453 1366L853 552Q892 472 925 397T985 260L1102 137L911 0L506 815ZM1190 1364V3Q1162 -3 1121 -6T1049 -9Q1020 -9 984 -7T911 0L974 259L992 262Q987 345 983 439T976 624T974 783V1231Q974 1309 1002 1342T1101 1375H1178L1190 1364ZM599 1565Q583 1574
567 1578T534 1583Q514 1583 494 1570T456 1534L434 1506Q401 1507 367 1526T321 1575L335 1608Q367 1681 422 1723T550 1766Q584 1766 615 1756T671 1734L775 1684Q792 1676 810 1671T844 1665Q864 1665 884 1677T922 1714L944 1742Q977 1741 1011 1722T1058 1673L1043
1639Q1011 1567 956 1525T829 1482Q794 1482 763 1492T707 1513L599 1565Z" />
<glyph unicode="&#xd2;" horiz-adv-x="1319" d="M339 684Q339 596 351 504T398 333T495 206T660 158Q761 158 824 206T920 332T966 503T979 684Q979 772 967 864T921 1034T824 1160T660 1208Q558 1208 495 1160T398 1034T352 864T339 684ZM94 684Q94 888 155 1048T342
1300T660 1393Q853 1393 978 1301T1165 1048T1226 684Q1226 479 1165 319T978 66T660 -27Q467 -27 342 66T155 320T94 684ZM482 1820Q461 1805 440 1775T403 1709T383 1637L828 1456Q857 1474 873 1507T895 1572L482 1820Z" />
<glyph unicode="&#xd3;" horiz-adv-x="1319" d="M339 684Q339 596 351 504T398 333T495 206T660 158Q761 158 824 206T920 332T966 503T979 684Q979 772 967 864T921 1034T824 1160T660 1208Q558 1208 495 1160T398 1034T352 864T339 684ZM94 684Q94 888 155 1048T342
1300T660 1393Q853 1393 978 1301T1165 1048T1226 684Q1226 479 1165 319T978 66T660 -27Q467 -27 342 66T155 320T94 684ZM863 1820Q884 1805 905 1775T941 1709T960 1637L516 1456Q490 1472 472 1507T449 1572L863 1820Z" />
<glyph unicode="&#xd4;" horiz-adv-x="1319" d="M339 684Q339 596 351 504T398 333T495 206T660 158Q761 158 824 206T920 332T966 503T979 684Q979 772 967 864T921 1034T824 1160T660 1208Q558 1208 495 1160T398 1034T352 864T339 684ZM94 684Q94 888 155 1048T342
1300T660 1393Q853 1393 978 1301T1165 1048T1226 684Q1226 479 1165 319T978 66T660 -27Q467 -27 342 66T155 320T94 684ZM756 1785L981 1571Q969 1535 940 1509T884 1473L658 1623L431 1473Q406 1482 376 1508T334 1571L559 1785Q579 1788 605 1790T658 1793Q685
1793 710 1791T756 1785Z" />
<glyph unicode="&#xd5;" horiz-adv-x="1319" d="M339 684Q339 596 351 504T398 333T495 206T660 158Q761 158 824 206T920 332T966 503T979 684Q979 772 967 864T921 1034T824 1160T660 1208Q558 1208 495 1160T398 1034T352 864T339 684ZM94 684Q94 888 155 1048T342
1300T660 1393Q853 1393 978 1301T1165 1048T1226 684Q1226 479 1165 319T978 66T660 -27Q467 -27 342 66T155 320T94 684ZM570 1565Q554 1574 538 1578T505 1583Q485 1583 465 1570T427 1534L405 1506Q372 1507 338 1526T292 1575L306 1608Q338 1681 393 1723T521
1766Q555 1766 586 1756T642 1734L746 1684Q763 1676 781 1671T815 1665Q835 1665 855 1677T893 1714L915 1742Q948 1741 982 1722T1029 1673L1014 1639Q982 1567 927 1525T800 1482Q765 1482 734 1492T678 1513L570 1565Z" />
<glyph unicode="&#xd6;" horiz-adv-x="1319" d="M339 684Q339 596 351 504T398 333T495 206T660 158Q761 158 824 206T920 332T966 503T979 684Q979 772 967 864T921 1034T824 1160T660 1208Q558 1208 495 1160T398 1034T352 864T339 684ZM94 684Q94 888 155 1048T342
1300T660 1393Q853 1393 978 1301T1165 1048T1226 684Q1226 479 1165 319T978 66T660 -27Q467 -27 342 66T155 320T94 684ZM872 1486Q845 1486 816 1492T766 1511Q758 1533 755 1556T751 1597Q751 1616 754 1639T766 1684Q787 1696 816 1702T872 1709Q900 1709
929 1703T979 1684Q988 1662 991 1639T994 1597Q994 1580 991 1557T979 1511Q958 1499 929 1493T872 1486ZM446 1486Q418 1486 389 1492T339 1511Q331 1533 328 1556T324 1597Q324 1616 327 1639T339 1684Q360 1696 389 1702T446 1709Q473 1709 502 1703T552 1684Q561
1662 564 1639T567 1597Q567 1580 564 1557T552 1511Q531 1499 502 1493T446 1486Z" />
<glyph unicode="&#xd7;" horiz-adv-x="1080" d="M337 695Q355 676 377 655T417 616L526 507Q544 489 565 467T605 426L792 238Q838 257 875 295Q910 329 932 377L743 565Q725 584 703 604T662 645L554 752Q535 771 515 792T475 833L287 1022Q265 1012 244 998T205
965Q187 946 173 926T148 882L337 695ZM475 426Q494 445 514 466T554 507L662 615Q680 634 702 654T743 694L932 882Q910 928 873 965Q856 983 835 997T792 1021L605 832Q586 813 565 792T526 752L417 643Q399 625 377 604T337 564L148 377Q158 353 173 333T206
295Q222 279 243 264T287 237L475 426Z" />
<glyph unicode="&#xd8;" horiz-adv-x="1323" d="M876 1282L991 1483Q1032 1477 1075 1454T1142 1400L1006 1159L448 87L332 -114Q293 -108 250 -85T181 -32L318 210L876 1282ZM331 684Q331 595 345 502T394 330T494 203T661 154Q764 154 828 202T928 330T977 502T990
684Q990 773 977 865T929 1036T829 1163T661 1212Q559 1212 495 1164T395 1037T345 866T331 684ZM94 684Q94 887 155 1047T343 1300T661 1393Q855 1393 980 1300T1167 1046T1229 684Q1229 481 1168 321T981 67T661 -27Q468 -27 342 67T155 322T94 684Z" />
<glyph unicode="&#xd9;" horiz-adv-x="1340" d="M1182 484Q1182 318 1119 204T942 32T669 -27Q512 -27 398 31T220 204T157 484V1363L170 1375H259Q329 1375 360 1340T392 1227V484Q392 325 461 244T669 162Q810 162 879 243T948 484V1366Q975 1371 1006 1373T1062
1375Q1087 1375 1121 1373T1182 1366V484ZM489 1820Q468 1805 447 1775T410 1709T390 1637L835 1456Q864 1474 880 1507T902 1572L489 1820Z" />
<glyph unicode="&#xda;" horiz-adv-x="1340" d="M1182 484Q1182 318 1119 204T942 32T669 -27Q512 -27 398 31T220 204T157 484V1363L170 1375H259Q329 1375 360 1340T392 1227V484Q392 325 461 244T669 162Q810 162 879 243T948 484V1366Q975 1371 1006 1373T1062
1375Q1087 1375 1121 1373T1182 1366V484ZM870 1820Q891 1805 912 1775T948 1709T967 1637L523 1456Q497 1472 479 1507T456 1572L870 1820Z" />
<glyph unicode="&#xdb;" horiz-adv-x="1340" d="M1182 484Q1182 318 1119 204T942 32T669 -27Q512 -27 398 31T220 204T157 484V1363L170 1375H259Q329 1375 360 1340T392 1227V484Q392 325 461 244T669 162Q810 162 879 243T948 484V1366Q975 1371 1006 1373T1062
1375Q1087 1375 1121 1373T1182 1366V484ZM763 1785L988 1571Q976 1535 947 1509T891 1473L665 1623L438 1473Q413 1482 383 1508T341 1571L566 1785Q586 1788 612 1790T665 1793Q692 1793 717 1791T763 1785Z" />
<glyph unicode="&#xdc;" horiz-adv-x="1340" d="M1182 484Q1182 318 1119 204T942 32T669 -27Q512 -27 398 31T220 204T157 484V1363L170 1375H259Q329 1375 360 1340T392 1227V484Q392 325 461 244T669 162Q810 162 879 243T948 484V1366Q975 1371 1006 1373T1062
1375Q1087 1375 1121 1373T1182 1366V484ZM879 1486Q852 1486 823 1492T773 1511Q765 1533 762 1556T758 1597Q758 1616 761 1639T773 1684Q794 1696 823 1702T879 1709Q907 1709 936 1703T986 1684Q995 1662 998 1639T1001 1597Q1001 1580 998 1557T986 1511Q965
1499 936 1493T879 1486ZM453 1486Q425 1486 396 1492T346 1511Q338 1533 335 1556T331 1597Q331 1616 334 1639T346 1684Q367 1696 396 1702T453 1709Q480 1709 509 1703T559 1684Q568 1662 571 1639T574 1597Q574 1580 571 1557T559 1511Q538 1499 509 1493T453
1486Z" />
<glyph unicode="&#xdd;" horiz-adv-x="1022" d="M395 576H629V0Q601 -5 570 -7T512 -9Q488 -9 455 -7T395 0V576ZM789 1366Q813 1372 838 1374T887 1376Q917 1376 947 1372T1001 1360L1011 1344L612 393H415L13 1339Q49 1359 86 1370T159 1381Q208 1381 235 1357T284
1282L430 926Q452 871 474 803T515 669H526Q538 711 554 760T587 854T616 932L789 1366ZM721 1820Q742 1805 763 1775T799 1709T818 1637L374 1456Q348 1472 330 1507T307 1572L721 1820Z" />
<glyph unicode="&#xde;" horiz-adv-x="1150" d="M291 1161Q370 1164 448 1166T606 1168Q741 1168 846 1122T1012 978T1073 728Q1073 580 1013 482T848 335T606 286H291V466Q315 467 357 468T447 470T535 471T595 472Q691 472 742 512T812 611T831 728Q831 786
812 845T742 944T595 984Q566 984 511 984T397 986T291 988V1161ZM175 1366Q201 1371 234 1373T291 1375Q318 1375 350 1373T410 1366V0Q382 -5 350 -7T291 -9Q267 -9 234 -7T175 0V1366Z" />
<glyph unicode="&#xdf;" horiz-adv-x="1266" d="M315 945L316 772L34 768Q30 787 28 813T25 860Q25 880 27 904T34 949L315 945ZM206 1010Q206 1137 262 1223T419 1353T650 1398Q788 1398 889 1349T1045 1210T1101 1001Q1101 961 1094 921T1071 841L828 823Q851
861 861 904T871 991Q871 1053 847 1106T774 1191T649 1223Q539 1223 488 1159T437 986V0Q412 -4 381 -6T321 -9Q294 -9 263 -7T206 0V1010ZM574 44Q576 81 595 129T644 204Q685 176 732 162T819 148Q884 148 922 179T961 260Q961 298 940 331T885 393L805 462Q774
490 744 523T694 596T674 686Q674 765 731 833T883 935L1071 840Q987 820 951 778T915 699Q915 664 938 637T981 592L1057 527Q1126 468 1164 401T1203 263Q1203 175 1158 110T1033 9T846 -27Q778 -27 705 -10T574 44Z" />
<glyph unicode="&#xe0;" horiz-adv-x="1016" d="M82 269Q82 385 133 459T272 568T467 604Q521 604 591 600T721 582V431Q670 443 604 446T484 450Q398 450 352 406T306 285Q306 228 339 189T433 150Q503 150 580 199T711 342L745 177Q709 134 657 87T535 6T378
-27Q278 -27 212 17T114 130T82 269ZM930 102Q923 71 900 37T850 -15Q782 -5 739 30T675 114T649 216V663Q649 751 609 790T492 830Q420 830 341 808T181 756Q155 783 138 830T119 921Q177 945 250 966T399 999T543 1011Q639 1011 713 976T831 866T874 675V265Q874
212 885 171T930 102ZM374 1490Q327 1475 282 1434T221 1345L568 1077Q598 1086 625 1111T666 1168L374 1490Z" />
<glyph unicode="&#xe1;" horiz-adv-x="1016" d="M82 269Q82 385 133 459T272 568T467 604Q521 604 591 600T721 582V431Q670 443 604 446T484 450Q398 450 352 406T306 285Q306 228 339 189T433 150Q503 150 580 199T711 342L745 177Q709 134 657 87T535 6T378
-27Q278 -27 212 17T114 130T82 269ZM930 102Q923 71 900 37T850 -15Q782 -5 739 30T675 114T649 216V663Q649 751 609 790T492 830Q420 830 341 808T181 756Q155 783 138 830T119 921Q177 945 250 966T399 999T543 1011Q639 1011 713 976T831 866T874 675V265Q874
212 885 171T930 102ZM626 1490Q674 1475 718 1434T780 1345L432 1077Q402 1086 374 1111T334 1168L626 1490Z" />
<glyph unicode="&#xe2;" horiz-adv-x="1016" d="M82 269Q82 385 133 459T272 568T467 604Q521 604 591 600T721 582V431Q670 443 604 446T484 450Q398 450 352 406T306 285Q306 228 339 189T433 150Q503 150 580 199T711 342L745 177Q709 134 657 87T535 6T378
-27Q278 -27 212 17T114 130T82 269ZM930 102Q923 71 900 37T850 -15Q782 -5 739 30T675 114T649 216V663Q649 751 609 790T492 830Q420 830 341 808T181 756Q155 783 138 830T119 921Q177 945 250 966T399 999T543 1011Q639 1011 713 976T831 866T874 675V265Q874
212 885 171T930 102ZM595 1444L788 1192Q773 1156 741 1130T682 1095L496 1275L310 1095Q283 1103 251 1129T204 1192L396 1444Q416 1449 442 1452T496 1456Q524 1456 549 1453T595 1444Z" />
<glyph unicode="&#xe3;" horiz-adv-x="1016" d="M82 269Q82 385 133 459T272 568T467 604Q521 604 591 600T721 582V431Q670 443 604 446T484 450Q398 450 352 406T306 285Q306 228 339 189T433 150Q503 150 580 199T711 342L745 177Q709 134 657 87T535 6T378
-27Q278 -27 212 17T114 130T82 269ZM930 102Q923 71 900 37T850 -15Q782 -5 739 30T675 114T649 216V663Q649 751 609 790T492 830Q420 830 341 808T181 756Q155 783 138 830T119 921Q177 945 250 966T399 999T543 1011Q639 1011 713 976T831 866T874 675V265Q874
212 885 171T930 102ZM417 1191Q407 1197 390 1204T353 1211Q322 1211 304 1193T275 1162L253 1134Q221 1135 189 1154T144 1204L161 1242Q192 1311 245 1352T366 1394Q402 1394 432 1384T482 1363L567 1318Q577 1312 594 1305T632 1297Q661 1297 678 1314T708
1346L730 1375Q762 1374 794 1354T839 1304L822 1265Q790 1194 736 1154T616 1114Q583 1114 554 1124T501 1145L417 1191Z" />
<glyph unicode="&#xe4;" horiz-adv-x="1016" d="M82 269Q82 385 133 459T272 568T467 604Q521 604 591 600T721 582V431Q670 443 604 446T484 450Q398 450 352 406T306 285Q306 228 339 189T433 150Q503 150 580 199T711 342L745 177Q709 134 657 87T535 6T378
-27Q278 -27 212 17T114 130T82 269ZM930 102Q923 71 900 37T850 -15Q782 -5 739 30T675 114T649 216V663Q649 751 609 790T492 830Q420 830 341 808T181 756Q155 783 138 830T119 921Q177 945 250 966T399 999T543 1011Q639 1011 713 976T831 866T874 675V265Q874
212 885 171T930 102ZM183 1234Q183 1253 186 1276T198 1318Q218 1330 247 1336T302 1343Q328 1343 357 1337T406 1318Q414 1300 417 1277T421 1234Q421 1215 418 1192T406 1150Q386 1139 357 1132T302 1125Q276 1125 247 1132T198 1150Q190 1168 187 1191T183
1234ZM561 1234Q561 1253 564 1276T576 1318Q596 1330 625 1336T680 1343Q706 1343 735 1337T784 1318Q792 1300 796 1277T800 1234Q800 1215 796 1192T784 1150Q765 1139 736 1132T680 1125Q654 1125 625 1132T576 1150Q568 1168 565 1191T561 1234Z" />
<glyph unicode="&#xe5;" horiz-adv-x="1016" d="M82 269Q82 385 133 459T272 568T467 604Q521 604 591 600T721 582V431Q670 443 604 446T484 450Q398 450 352 406T306 285Q306 228 339 189T433 150Q503 150 580 199T711 342L745 177Q709 134 657 87T535 6T378
-27Q278 -27 212 17T114 130T82 269ZM930 102Q923 71 900 37T850 -15Q782 -5 739 30T675 114T649 216V663Q649 751 609 790T492 830Q420 830 341 808T181 756Q155 783 138 830T119 921Q177 945 250 966T399 999T543 1011Q639 1011 713 976T831 866T874 675V265Q874
212 885 171T930 102ZM241 1312Q241 1216 310 1148T491 1079Q602 1079 671 1147T741 1312Q741 1408 672 1476T491 1544Q380 1544 311 1476T241 1312ZM391 1312Q391 1358 419 1389T491 1420Q535 1420 563 1389T591 1312Q591 1266 563 1235T491 1204Q447 1204 419
1235T391 1312Z" />
<glyph unicode="&#xe6;" horiz-adv-x="1552" d="M82 271Q82 386 133 460T272 569T467 604Q526 604 593 599T721 582V429Q668 440 603 445T484 450Q398 450 352 406T306 286Q306 229 339 190T433 150Q507 150 588 200T723 355L772 180Q735 131 677 84T544 5T378
-27Q278 -27 212 17T114 129T82 271ZM649 493V663Q649 751 609 790T493 830Q420 830 341 808T181 756Q155 783 138 830T119 921Q206 957 319 984T530 1011Q629 1011 701 973T812 860T852 671V493H649ZM788 422V585H1248V608Q1248 674 1230 728T1172 816T1065 850Q968
850 923 769T877 538V473Q877 385 894 313T959 198T1097 156Q1171 156 1238 177T1370 229Q1397 203 1414 162T1438 86Q1365 34 1266 4T1061 -27Q861 -27 756 105T649 493Q648 585 673 677T749 846T880 969T1066 1016Q1196 1016 1285 960T1419 807T1465 591Q1465
539 1461 503T1448 422H788Z" />
<glyph unicode="&#xe7;" horiz-adv-x="944" d="M666 596Q669 664 656 720T607 809T502 843Q412 843 365 756T317 490Q317 314 373 236T532 157Q599 157 659 187T771 255Q801 237 829 198T865 122Q797 55 702 14T497 -27Q390 -27 312 13T183 124T108 289T83 490Q83
630 118 730T215 893T351 986T507 1016Q597 1016 665 990T781 919T851 820T875 709Q875 651 847 619T760 587Q732 587 711 589T666 596ZM368 -150Q380 -116 401 -67T441 12H575Q565 -2 552 -28T531 -71Q607 -78 659 -125T712 -247Q712 -337 642 -393T464 -450Q417
-450 374 -438T304 -409Q306 -379 318 -350T347 -298Q366 -309 392 -317T446 -325Q490 -325 511 -304T532 -252Q532 -221 511 -200T451 -178Q439 -178 427 -180T405 -187Q393 -182 383 -172T368 -150Z" />
<glyph unicode="&#xe8;" horiz-adv-x="999" d="M226 422V585H690V611Q690 676 672 730T613 817T505 850Q409 850 363 769T316 543V473Q316 385 333 313T399 198T536 156Q611 156 680 176T811 229Q839 202 857 162T880 86Q807 34 707 4T501 -27Q380 -27 299 15T171
131T103 298T83 492Q83 641 129 760T269 947T506 1016Q636 1016 725 960T861 807T907 591Q907 539 903 503T889 422H226ZM393 1490Q346 1475 301 1434T240 1345L587 1077Q617 1086 644 1111T685 1168L393 1490Z" />
<glyph unicode="&#xe9;" horiz-adv-x="999" d="M226 422V585H690V611Q690 676 672 730T613 817T505 850Q409 850 363 769T316 543V473Q316 385 333 313T399 198T536 156Q611 156 680 176T811 229Q839 202 857 162T880 86Q807 34 707 4T501 -27Q380 -27 299 15T171
131T103 298T83 492Q83 641 129 760T269 947T506 1016Q636 1016 725 960T861 807T907 591Q907 539 903 503T889 422H226ZM645 1490Q693 1475 737 1434T799 1345L451 1077Q421 1086 393 1111T353 1168L645 1490Z" />
<glyph unicode="&#xea;" horiz-adv-x="999" d="M226 422V585H690V611Q690 676 672 730T613 817T505 850Q409 850 363 769T316 543V473Q316 385 333 313T399 198T536 156Q611 156 680 176T811 229Q839 202 857 162T880 86Q807 34 707 4T501 -27Q380 -27 299 15T171
131T103 298T83 492Q83 641 129 760T269 947T506 1016Q636 1016 725 960T861 807T907 591Q907 539 903 503T889 422H226ZM614 1444L807 1192Q792 1156 760 1130T701 1095L515 1275L329 1095Q302 1103 270 1129T223 1192L415 1444Q435 1449 461 1452T515 1456Q543
1456 568 1453T614 1444Z" />
<glyph unicode="&#xeb;" horiz-adv-x="999" d="M226 422V585H690V611Q690 676 672 730T613 817T505 850Q409 850 363 769T316 543V473Q316 385 333 313T399 198T536 156Q611 156 680 176T811 229Q839 202 857 162T880 86Q807 34 707 4T501 -27Q380 -27 299 15T171
131T103 298T83 492Q83 641 129 760T269 947T506 1016Q636 1016 725 960T861 807T907 591Q907 539 903 503T889 422H226ZM202 1234Q202 1253 205 1276T217 1318Q237 1330 266 1336T321 1343Q347 1343 376 1337T425 1318Q433 1300 436 1277T440 1234Q440 1215 437
1192T425 1150Q405 1139 376 1132T321 1125Q295 1125 266 1132T217 1150Q209 1168 206 1191T202 1234ZM580 1234Q580 1253 583 1276T595 1318Q615 1330 644 1336T699 1343Q725 1343 754 1337T803 1318Q811 1300 815 1277T819 1234Q819 1215 815 1192T803 1150Q784
1139 755 1132T699 1125Q673 1125 644 1132T595 1150Q587 1168 584 1191T580 1234Z" />
<glyph unicode="&#xec;" horiz-adv-x="553" d="M407 0Q384 -4 354 -6T294 -9Q264 -9 234 -7T180 0V719Q180 771 161 798T92 825H67Q58 865 58 905Q58 924 60 945T67 987Q107 992 143 994T205 996H234Q315 996 361 946T407 807V0ZM139 1490Q92 1475 47 1434T-14
1345L333 1077Q363 1086 390 1111T431 1168L139 1490Z" />
<glyph unicode="&#xed;" horiz-adv-x="553" d="M407 0Q384 -4 354 -6T294 -9Q264 -9 234 -7T180 0V719Q180 771 161 798T92 825H67Q58 865 58 905Q58 924 60 945T67 987Q107 992 143 994T205 996H234Q315 996 361 946T407 807V0ZM391 1490Q439 1475 483 1434T545
1345L197 1077Q167 1086 139 1111T99 1168L391 1490Z" />
<glyph unicode="&#xee;" horiz-adv-x="553" d="M407 0Q384 -4 354 -6T294 -9Q264 -9 234 -7T180 0V719Q180 771 161 798T92 825H67Q58 865 58 905Q58 924 60 945T67 987Q107 992 143 994T205 996H234Q315 996 361 946T407 807V0ZM360 1444L553 1192Q538 1156 506
1130T447 1095L261 1275L75 1095Q48 1103 16 1129T-31 1192L161 1444Q181 1449 207 1452T261 1456Q289 1456 314 1453T360 1444Z" />
<glyph unicode="&#xef;" horiz-adv-x="553" d="M407 0Q384 -4 354 -6T294 -9Q264 -9 234 -7T180 0V719Q180 771 161 798T92 825H67Q58 865 58 905Q58 924 60 945T67 987Q107 992 143 994T205 996H234Q315 996 361 946T407 807V0ZM-52 1234Q-52 1253 -49 1276T-37
1318Q-17 1330 12 1336T67 1343Q93 1343 122 1337T171 1318Q179 1300 182 1277T186 1234Q186 1215 183 1192T171 1150Q151 1139 122 1132T67 1125Q41 1125 12 1132T-37 1150Q-45 1168 -48 1191T-52 1234ZM326 1234Q326 1253 329 1276T341 1318Q361 1330 390 1336T445
1343Q471 1343 500 1337T549 1318Q557 1300 561 1277T565 1234Q565 1215 561 1192T549 1150Q530 1139 501 1132T445 1125Q419 1125 390 1132T341 1150Q333 1168 330 1191T326 1234Z" />
<glyph unicode="&#xf0;" horiz-adv-x="1039" d="M957 492Q957 339 907 222T759 39T518 -27Q375 -27 278 39T132 220T82 483Q82 627 132 737T277 911T505 974Q589 974 664 934T786 844V671Q741 728 672 767T521 806Q443 806 398 763T334 647T315 480Q315 395 332
318T393 192T519 143Q600 143 644 193T706 322T723 492Q723 619 706 701T659 855Q649 954 585 1049T425 1223T227 1355Q234 1397 259 1438T317 1497Q522 1411 664 1265T882 923T957 492ZM715 1488Q740 1471 765 1438T795 1373L294 1028Q268 1046 244 1079T214 1143L715
1488Z" />
<glyph unicode="&#xf1;" horiz-adv-x="1092" d="M247 999Q317 999 346 956T376 836V0Q353 -4 323 -6T263 -9Q233 -9 203 -7T149 0V986L162 999H247ZM951 219Q951 166 959 118T988 35Q963 14 925 0T845 -14Q778 -14 751 22T724 130V622Q724 717 700 760T607 803Q560
803 506 780T401 714T319 611V825Q387 900 481 953T683 1007Q777 1007 835 963T922 844T951 674V219ZM483 1191Q473 1197 456 1204T419 1211Q388 1211 370 1193T341 1162L319 1134Q287 1135 255 1154T210 1204L227 1242Q258 1311 311 1352T432 1394Q468 1394 498
1384T548 1363L633 1318Q643 1312 660 1305T698 1297Q727 1297 744 1314T774 1346L796 1375Q828 1374 860 1354T905 1304L888 1265Q856 1194 802 1154T682 1114Q649 1114 620 1124T567 1145L483 1191Z" />
<glyph unicode="&#xf2;" horiz-adv-x="1041" d="M959 495Q959 341 909 223T762 39T520 -27Q376 -27 279 40T132 224T83 495Q83 649 132 766T279 950T520 1016Q665 1016 762 950T909 766T959 495ZM317 495Q317 404 334 325T395 196T521 146Q602 146 646 195T707
324T724 495Q724 586 707 665T646 795T521 845Q440 845 396 795T334 666T317 495ZM403 1490Q356 1475 311 1434T250 1345L597 1077Q627 1086 654 1111T695 1168L403 1490Z" />
<glyph unicode="&#xf3;" horiz-adv-x="1041" d="M959 495Q959 341 909 223T762 39T520 -27Q376 -27 279 40T132 224T83 495Q83 649 132 766T279 950T520 1016Q665 1016 762 950T909 766T959 495ZM317 495Q317 404 334 325T395 196T521 146Q602 146 646 195T707
324T724 495Q724 586 707 665T646 795T521 845Q440 845 396 795T334 666T317 495ZM655 1490Q703 1475 747 1434T809 1345L461 1077Q431 1086 403 1111T363 1168L655 1490Z" />
<glyph unicode="&#xf4;" horiz-adv-x="1041" d="M959 495Q959 341 909 223T762 39T520 -27Q376 -27 279 40T132 224T83 495Q83 649 132 766T279 950T520 1016Q665 1016 762 950T909 766T959 495ZM317 495Q317 404 334 325T395 196T521 146Q602 146 646 195T707
324T724 495Q724 586 707 665T646 795T521 845Q440 845 396 795T334 666T317 495ZM624 1444L817 1192Q802 1156 770 1130T711 1095L525 1275L339 1095Q312 1103 280 1129T233 1192L425 1444Q445 1449 471 1452T525 1456Q553 1456 578 1453T624 1444Z" />
<glyph unicode="&#xf5;" horiz-adv-x="1041" d="M959 495Q959 341 909 223T762 39T520 -27Q376 -27 279 40T132 224T83 495Q83 649 132 766T279 950T520 1016Q665 1016 762 950T909 766T959 495ZM317 495Q317 404 334 325T395 196T521 146Q602 146 646 195T707
324T724 495Q724 586 707 665T646 795T521 845Q440 845 396 795T334 666T317 495ZM445 1191Q435 1197 418 1204T381 1211Q350 1211 332 1193T303 1162L281 1134Q249 1135 217 1154T172 1204L189 1242Q220 1311 273 1352T394 1394Q430 1394 460 1384T510 1363L595
1318Q605 1312 622 1305T660 1297Q689 1297 706 1314T736 1346L758 1375Q790 1374 822 1354T867 1304L850 1265Q818 1194 764 1154T644 1114Q611 1114 582 1124T529 1145L445 1191Z" />
<glyph unicode="&#xf6;" horiz-adv-x="1041" d="M959 495Q959 341 909 223T762 39T520 -27Q376 -27 279 40T132 224T83 495Q83 649 132 766T279 950T520 1016Q665 1016 762 950T909 766T959 495ZM317 495Q317 404 334 325T395 196T521 146Q602 146 646 195T707
324T724 495Q724 586 707 665T646 795T521 845Q440 845 396 795T334 666T317 495ZM212 1234Q212 1253 215 1276T227 1318Q247 1330 276 1336T331 1343Q357 1343 386 1337T435 1318Q443 1300 446 1277T450 1234Q450 1215 447 1192T435 1150Q415 1139 386 1132T331
1125Q305 1125 276 1132T227 1150Q219 1168 216 1191T212 1234ZM590 1234Q590 1253 593 1276T605 1318Q625 1330 654 1336T709 1343Q735 1343 764 1337T813 1318Q821 1300 825 1277T829 1234Q829 1215 825 1192T813 1150Q794 1139 765 1132T709 1125Q683 1125 654
1132T605 1150Q597 1168 594 1191T590 1234Z" />
<glyph unicode="&#xf7;" horiz-adv-x="1080" d="M412 985Q412 1036 429 1074Q449 1086 479 1092T540 1099Q569 1099 600 1093T650 1074Q658 1057 663 1032T668 985Q668 963 663 939T650 896Q633 885 601 879T540 872Q510 872 479 878T429 896Q412 934 412 985ZM412
271Q412 322 429 361Q449 372 479 378T540 385Q569 385 600 379T650 361Q658 343 663 319T668 271Q668 249 663 225T650 182Q633 171 601 165T540 158Q510 158 479 164T429 182Q412 220 412 271ZM121 535Q116 557 114 583T112 629Q112 650 114 676T121 726H959Q964
703 966 677T968 629Q968 610 966 584T959 535H121Z" />
<glyph unicode="&#xf8;" horiz-adv-x="1045" d="M960 496Q960 378 930 271T819 85Q762 29 687 1T521 -27Q433 -27 358 1T226 85Q146 163 116 270T85 496Q85 614 115 720T226 905Q283 962 358 989T521 1016Q612 1016 687 989T819 905Q899 826 929 720T960 496ZM300
496Q300 407 319 325T386 191T523 139Q611 139 659 191T726 325T745 496Q745 585 726 666T659 800T523 852Q434 852 386 800T319 667T300 496ZM656 907L769 1105Q802 1099 837 1080T895 1035L761 799L388 88L271 -114Q237 -108 202 -89T145 -43L281 193L656 907Z"
/>
<glyph unicode="&#xf9;" horiz-adv-x="1095" d="M943 281Q943 225 955 176T999 101Q991 70 968 36T918 -15Q813 1 765 78T716 258V989Q738 994 768 996T829 998Q859 998 889 996T943 989V281ZM141 771Q141 824 133 871T105 954Q130 975 168 989T247 1003Q314 1003
341 967T368 860V367Q368 274 392 231T485 187Q532 187 586 209T691 275T772 378V166Q705 90 612 36T409 -18Q316 -18 257 26T170 146T141 316V771ZM418 1490Q371 1475 326 1434T265 1345L612 1077Q642 1086 669 1111T710 1168L418 1490Z" />
<glyph unicode="&#xfa;" horiz-adv-x="1095" d="M943 281Q943 225 955 176T999 101Q991 70 968 36T918 -15Q813 1 765 78T716 258V989Q738 994 768 996T829 998Q859 998 889 996T943 989V281ZM141 771Q141 824 133 871T105 954Q130 975 168 989T247 1003Q314 1003
341 967T368 860V367Q368 274 392 231T485 187Q532 187 586 209T691 275T772 378V166Q705 90 612 36T409 -18Q316 -18 257 26T170 146T141 316V771ZM670 1490Q718 1475 762 1434T824 1345L476 1077Q446 1086 418 1111T378 1168L670 1490Z" />
<glyph unicode="&#xfb;" horiz-adv-x="1095" d="M943 281Q943 225 955 176T999 101Q991 70 968 36T918 -15Q813 1 765 78T716 258V989Q738 994 768 996T829 998Q859 998 889 996T943 989V281ZM141 771Q141 824 133 871T105 954Q130 975 168 989T247 1003Q314 1003
341 967T368 860V367Q368 274 392 231T485 187Q532 187 586 209T691 275T772 378V166Q705 90 612 36T409 -18Q316 -18 257 26T170 146T141 316V771ZM639 1444L832 1192Q817 1156 785 1130T726 1095L540 1275L354 1095Q327 1103 295 1129T248 1192L440 1444Q460
1449 486 1452T540 1456Q568 1456 593 1453T639 1444Z" />
<glyph unicode="&#xfc;" horiz-adv-x="1095" d="M943 281Q943 225 955 176T999 101Q991 70 968 36T918 -15Q813 1 765 78T716 258V989Q738 994 768 996T829 998Q859 998 889 996T943 989V281ZM141 771Q141 824 133 871T105 954Q130 975 168 989T247 1003Q314 1003
341 967T368 860V367Q368 274 392 231T485 187Q532 187 586 209T691 275T772 378V166Q705 90 612 36T409 -18Q316 -18 257 26T170 146T141 316V771ZM227 1234Q227 1253 230 1276T242 1318Q262 1330 291 1336T346 1343Q372 1343 401 1337T450 1318Q458 1300 461
1277T465 1234Q465 1215 462 1192T450 1150Q430 1139 401 1132T346 1125Q320 1125 291 1132T242 1150Q234 1168 231 1191T227 1234ZM605 1234Q605 1253 608 1276T620 1318Q640 1330 669 1336T724 1343Q750 1343 779 1337T828 1318Q836 1300 840 1277T844 1234Q844
1215 840 1192T828 1150Q809 1139 780 1132T724 1125Q698 1125 669 1132T620 1150Q612 1168 609 1191T605 1234Z" />
<glyph unicode="&#xfd;" horiz-adv-x="947" d="M665 31Q623 -118 570 -222T433 -382T211 -437Q161 -437 102 -426T9 -403Q6 -364 20 -316T57 -241Q83 -249 127 -257T212 -266Q276 -266 319 -238T392 -158T443 -36L450 -11Q385 -9 345 14T285 100L28 972Q66 989
102 997T167 1005Q208 1005 236 985T280 905L407 459Q420 416 433 363T457 260T476 172Q480 158 495 158L705 990Q725 995 751 997T800 999Q830 999 860 996T918 983L926 969L665 31ZM607 1490Q655 1475 699 1434T761 1345L413 1077Q383 1086 355 1111T315 1168L607
1490Z" />
<glyph unicode="&#xfe;" horiz-adv-x="1058" d="M369 -288Q369 -364 343 -397T246 -431H162L149 -418V1458L162 1471H246Q316 1471 342 1438T369 1328V-288ZM975 516Q975 329 918 211T774 38T593 -18Q498 -18 415 20T261 112L290 286Q348 240 418 200T554 160Q609
160 651 197T719 312T744 505Q744 618 721 687T659 788T574 820Q527 820 475 795T377 713T305 563L257 720Q274 790 326 856T456 964T628 1007Q739 1007 816 944T934 770T975 516Z" />
<glyph unicode="&#xff;" horiz-adv-x="947" d="M665 31Q623 -118 570 -222T433 -382T211 -437Q161 -437 102 -426T9 -403Q6 -364 20 -316T57 -241Q83 -249 127 -257T212 -266Q276 -266 319 -238T392 -158T443 -36L450 -11Q385 -9 345 14T285 100L28 972Q66 989
102 997T167 1005Q208 1005 236 985T280 905L407 459Q420 416 433 363T457 260T476 172Q480 158 495 158L705 990Q725 995 751 997T800 999Q830 999 860 996T918 983L926 969L665 31ZM164 1234Q164 1253 167 1276T179 1318Q199 1330 228 1336T283 1343Q309 1343
338 1337T387 1318Q395 1300 398 1277T402 1234Q402 1215 399 1192T387 1150Q367 1139 338 1132T283 1125Q257 1125 228 1132T179 1150Q171 1168 168 1191T164 1234ZM542 1234Q542 1253 545 1276T557 1318Q577 1330 606 1336T661 1343Q687 1343 716 1337T765 1318Q773
1300 777 1277T781 1234Q781 1215 777 1192T765 1150Q746 1139 717 1132T661 1125Q635 1125 606 1132T557 1150Q549 1168 546 1191T542 1234Z" />
<glyph unicode="&#x2013;" horiz-adv-x="1071" d="M130 439Q123 462 121 485T119 529Q119 550 121 574T130 621H943Q948 598 950 574T952 529Q952 509 950 486T943 439H130Z" />
<glyph unicode="&#x2014;" horiz-adv-x="1589" d="M141 439Q135 462 133 485T131 529Q131 550 133 574T141 621H1432Q1438 598 1440 574T1442 529Q1442 509 1440 486T1432 439H141Z" />
<glyph unicode="&#x2018;" horiz-adv-x="471" d="M107 1031Q94 1060 89 1095T83 1168Q83 1292 153 1392T364 1541Q395 1526 410 1495T422 1431Q389 1417 356 1393T300 1335T275 1261Q296 1259 321 1253T360 1236Q369 1222 375 1192T381 1136Q381 1111 376 1079T360
1031Q341 1019 303 1011T233 1002Q201 1002 164 1010T107 1031Z" />
<glyph unicode="&#x2019;" horiz-adv-x="471" d="M366 1510Q377 1481 382 1446T388 1373Q388 1248 319 1148T107 1000Q78 1015 63 1046T51 1110Q84 1124 117 1148T172 1206T196 1280Q176 1283 150 1288T111 1304Q103 1319 97 1349T91 1404Q91 1430 97 1462T111
1510Q131 1521 169 1530T240 1539Q271 1539 308 1531T366 1510Z" />
<glyph unicode="&#x201a;" horiz-adv-x="473" d="M372 212Q383 183 388 148T394 75Q394 -49 324 -149T113 -298Q83 -283 68 -252T56 -188Q89 -173 122 -149T178 -92T202 -18Q182 -15 156 -10T117 7Q108 22 103 51T97 106Q97 132 102 165T117 212Q137 224 175 232T245
241Q277 241 314 233T372 212Z" />
<glyph unicode="&#x201c;" horiz-adv-x="877" d="M360 1031Q347 1060 342 1095T336 1168Q336 1292 406 1392T617 1541Q648 1526 663 1495T675 1431Q642 1417 609 1393T553 1335T528 1261Q549 1259 574 1253T613 1236Q622 1222 628 1192T634 1136Q634 1111 629
1079T613 1031Q594 1019 556 1011T486 1002Q454 1002 417 1010T360 1031ZM509 1031Q496 1060 491 1095T485 1168Q485 1292 555 1392T766 1541Q797 1526 812 1495T824 1431Q791 1417 758 1393T702 1335T677 1261Q698 1259 723 1253T762 1236Q771 1222 777 1192T783
1136Q783 1111 778 1079T762 1031Q743 1019 705 1011T635 1002Q603 1002 566 1010T509 1031Z" />
<glyph unicode="&#x201d;" horiz-adv-x="877" d="M371 1510Q382 1481 387 1446T393 1373Q393 1248 324 1148T112 1000Q83 1015 68 1046T56 1110Q89 1124 122 1148T177 1206T201 1280Q181 1283 155 1288T116 1304Q108 1319 102 1349T96 1404Q96 1430 102 1462T116
1510Q136 1521 174 1530T245 1539Q276 1539 313 1531T371 1510ZM776 1510Q787 1481 792 1446T798 1373Q798 1248 729 1148T517 1000Q488 1015 473 1046T461 1110Q494 1124 527 1148T582 1206T606 1280Q586 1283 560 1288T521 1304Q513 1319 507 1349T501 1404Q501
1430 507 1462T521 1510Q541 1521 579 1530T650 1539Q681 1539 718 1531T776 1510Z" />
<glyph unicode="&#x201e;" horiz-adv-x="877" d="M372 212Q383 183 388 148T394 75Q394 -49 324 -149T113 -298Q83 -283 68 -252T56 -188Q89 -173 122 -149T178 -92T202 -18Q182 -15 156 -10T117 7Q108 22 103 51T97 106Q97 132 102 165T117 212Q137 224 175 232T245
241Q277 241 314 233T372 212ZM776 212Q787 183 792 148T798 75Q798 -49 728 -149T517 -298Q487 -283 472 -252T460 -188Q493 -173 526 -149T582 -92T606 -18Q586 -15 560 -10T521 7Q512 22 507 51T501 106Q501 132 506 165T521 212Q541 224 579 232T649 241Q681
241 718 233T776 212Z" />
<glyph unicode="&#x2022;" horiz-adv-x="900" d="M215 540Q215 571 222 627T246 716Q281 738 339 751T452 765Q501 765 562 752T656 716Q673 683 680 627T688 540Q688 509 681 453T656 364Q625 342 563 330T452 317Q398 317 340 329T246 364Q230 397 223 453T215 540Z" />
<glyph unicode="&#x2039;" horiz-adv-x="670" d="M318 514L599 187Q591 164 571 139T524 96T471 69L74 440Q62 468 62 510T74 580L464 951Q502 941 539 905T589 832L318 514Z" />
<glyph unicode="&#x203a;" horiz-adv-x="670" d="M352 507L71 833Q79 858 99 882T147 925T199 951L596 580Q608 552 608 511T596 441L206 69Q168 81 131 116T81 188L352 507Z" />
</font>
</defs>
</svg>
